<svg width="145" height="113" viewBox="0 0 145 113" fill="none" xmlns="http://www.w3.org/2000/svg">
<rect width="3.07221" height="2.30227" rx="0.430476" transform="matrix(-1 -1.74846e-07 -1.74846e-07 1 20.4448 14.421)" fill="#A6A6A6" fill-opacity="0.5"/>
<rect width="2.15055" height="0.460455" rx="0.230228" transform="matrix(-1 -1.74846e-07 -1.74846e-07 1 19.9844 16.8768)" fill="#A6A6A6" fill-opacity="0.5"/>
<rect width="3.07221" height="2.30227" rx="0.430476" transform="matrix(-1 -1.74846e-07 -1.74846e-07 1 26.1001 14.421)" fill="#A6A6A6" fill-opacity="0.5"/>
<rect width="2.15055" height="0.460455" rx="0.230228" transform="matrix(-1 -1.74846e-07 -1.74846e-07 1 25.6392 16.8768)" fill="#A6A6A6" fill-opacity="0.5"/>
<rect width="3.07221" height="2.30227" rx="0.430476" transform="matrix(-1 -1.74846e-07 -1.74846e-07 1 37.4102 14.421)" fill="#61C3F2"/>
<rect width="2.15055" height="0.460455" rx="0.230228" transform="matrix(-1 -1.74846e-07 -1.74846e-07 1 36.9492 16.8768)" fill="#61C3F2"/>
<rect width="3.07221" height="2.30227" rx="0.430476" transform="matrix(-1 -1.74846e-07 -1.74846e-07 1 43.0654 14.421)" fill="#61C3F2"/>
<rect width="2.15055" height="0.460455" rx="0.230228" transform="matrix(-1 -1.74846e-07 -1.74846e-07 1 42.6045 16.8768)" fill="#61C3F2"/>
<rect width="3.07221" height="2.30227" rx="0.430476" transform="matrix(-1 -1.74846e-07 -1.74846e-07 1 48.7202 14.421)" fill="#A6A6A6" fill-opacity="0.5"/>
<rect width="2.15055" height="0.460455" rx="0.230228" transform="matrix(-1 -1.74846e-07 -1.74846e-07 1 48.2593 16.8768)" fill="#A6A6A6" fill-opacity="0.5"/>
<rect width="3.07221" height="2.30227" rx="0.430476" transform="matrix(-1 -1.74846e-07 -1.74846e-07 1 54.3755 14.421)" fill="#A6A6A6" fill-opacity="0.5"/>
<rect width="2.15055" height="0.460455" rx="0.230228" transform="matrix(-1 -1.74846e-07 -1.74846e-07 1 53.9146 16.8768)" fill="#A6A6A6" fill-opacity="0.5"/>
<rect width="3.07221" height="2.30227" rx="0.430476" transform="matrix(-1 -1.74846e-07 -1.74846e-07 1 60.0303 14.421)" fill="#61C3F2"/>
<rect width="2.15055" height="0.460455" rx="0.230228" transform="matrix(-1 -1.74846e-07 -1.74846e-07 1 59.5698 16.8768)" fill="#61C3F2"/>
<rect width="3.07221" height="2.30227" rx="0.430476" transform="matrix(-1 -1.74846e-07 -1.74846e-07 1 65.6855 14.421)" fill="#61C3F2"/>
<rect width="2.15055" height="0.460455" rx="0.230228" transform="matrix(-1 -1.74846e-07 -1.74846e-07 1 65.2246 16.8768)" fill="#61C3F2"/>
<rect width="3.07221" height="2.30227" rx="0.430476" transform="matrix(-1 -1.74846e-07 -1.74846e-07 1 71.3408 14.421)" fill="#A6A6A6" fill-opacity="0.5"/>
<rect width="2.15055" height="0.460455" rx="0.230228" transform="matrix(-1 -1.74846e-07 -1.74846e-07 1 70.8799 16.8768)" fill="#A6A6A6" fill-opacity="0.5"/>
<rect width="3.07221" height="2.30227" rx="0.430476" transform="matrix(-1 -1.74846e-07 -1.74846e-07 1 76.9956 14.421)" fill="#A6A6A6" fill-opacity="0.5"/>
<rect width="2.15055" height="0.460455" rx="0.230228" transform="matrix(-1 -1.74846e-07 -1.74846e-07 1 76.5347 16.8768)" fill="#A6A6A6" fill-opacity="0.5"/>
<rect width="3.07221" height="2.30227" rx="0.430476" transform="matrix(-1 -1.74846e-07 -1.74846e-07 1 82.6509 14.421)" fill="#61C3F2"/>
<rect width="2.15055" height="0.460455" rx="0.230228" transform="matrix(-1 -1.74846e-07 -1.74846e-07 1 82.1899 16.8768)" fill="#61C3F2"/>
<rect width="3.07221" height="2.30227" rx="0.430476" transform="matrix(-1 -1.74846e-07 -1.74846e-07 1 88.3057 14.421)" fill="#61C3F2"/>
<rect width="2.15055" height="0.460455" rx="0.230228" transform="matrix(-1 -1.74846e-07 -1.74846e-07 1 87.8447 16.8768)" fill="#61C3F2"/>
<rect width="3.07221" height="2.30227" rx="0.430476" transform="matrix(-1 -1.74846e-07 -1.74846e-07 1 93.9609 14.421)" fill="#A6A6A6" fill-opacity="0.5"/>
<rect width="2.15055" height="0.460455" rx="0.230228" transform="matrix(-1 -1.74846e-07 -1.74846e-07 1 93.5 16.8768)" fill="#A6A6A6" fill-opacity="0.5"/>
<rect width="3.07221" height="2.30227" rx="0.430476" transform="matrix(-1 -1.74846e-07 -1.74846e-07 1 99.6162 14.421)" fill="#A6A6A6" fill-opacity="0.5"/>
<rect width="2.15055" height="0.460455" rx="0.230228" transform="matrix(-1 -1.74846e-07 -1.74846e-07 1 99.1553 16.8768)" fill="#A6A6A6" fill-opacity="0.5"/>
<rect width="3.07221" height="2.30227" rx="0.430476" transform="matrix(-1 -1.74846e-07 -1.74846e-07 1 105.271 14.421)" fill="#61C3F2"/>
<rect width="2.15055" height="0.460455" rx="0.230228" transform="matrix(-1 -1.74846e-07 -1.74846e-07 1 104.81 16.8768)" fill="#61C3F2"/>
<rect width="3.07221" height="2.30227" rx="0.430476" transform="matrix(-1 -1.74846e-07 -1.74846e-07 1 110.926 14.421)" fill="#61C3F2"/>
<rect width="2.15055" height="0.460455" rx="0.230228" transform="matrix(-1 -1.74846e-07 -1.74846e-07 1 110.465 16.8768)" fill="#61C3F2"/>
<rect width="3.07221" height="2.30227" rx="0.430476" transform="matrix(-1 -1.74846e-07 -1.74846e-07 1 122.236 14.421)" fill="#A6A6A6" fill-opacity="0.5"/>
<rect width="2.15055" height="0.460455" rx="0.230228" transform="matrix(-1 -1.74846e-07 -1.74846e-07 1 121.775 16.8768)" fill="#A6A6A6" fill-opacity="0.5"/>
<rect width="3.07221" height="2.30227" rx="0.430476" transform="matrix(-1 -1.74846e-07 -1.74846e-07 1 127.891 14.421)" fill="#A6A6A6" fill-opacity="0.5"/>
<rect width="2.15055" height="0.460455" rx="0.230228" transform="matrix(-1 -1.74846e-07 -1.74846e-07 1 127.43 16.8768)" fill="#A6A6A6" fill-opacity="0.5"/>
<rect width="3.07221" height="2.30227" rx="0.430476" transform="matrix(-1 -1.74846e-07 -1.74846e-07 1 9.13477 21.2115)" fill="#61C3F2"/>
<rect width="2.15055" height="0.460455" rx="0.230228" transform="matrix(-1 -1.74846e-07 -1.74846e-07 1 8.67432 23.6673)" fill="#61C3F2"/>
<rect width="3.07221" height="2.30227" rx="0.430476" transform="matrix(-1 -1.74846e-07 -1.74846e-07 1 14.79 21.2115)" fill="#A6A6A6" fill-opacity="0.5"/>
<rect width="2.15055" height="0.460455" rx="0.230228" transform="matrix(-1 -1.74846e-07 -1.74846e-07 1 14.3291 23.6673)" fill="#A6A6A6" fill-opacity="0.5"/>
<rect width="3.07221" height="2.30227" rx="0.430476" transform="matrix(-1 -1.74846e-07 -1.74846e-07 1 20.4448 21.2115)" fill="#61C3F2"/>
<rect width="2.15055" height="0.460455" rx="0.230228" transform="matrix(-1 -1.74846e-07 -1.74846e-07 1 19.9844 23.6673)" fill="#61C3F2"/>
<rect width="3.07221" height="2.30227" rx="0.430476" transform="matrix(-1 -1.74846e-07 -1.74846e-07 1 26.1001 21.2115)" fill="#A6A6A6" fill-opacity="0.5"/>
<rect width="2.15055" height="0.460455" rx="0.230228" transform="matrix(-1 -1.74846e-07 -1.74846e-07 1 25.6392 23.6673)" fill="#A6A6A6" fill-opacity="0.5"/>
<rect width="3.07221" height="2.30227" rx="0.430476" transform="matrix(-1 -1.74846e-07 -1.74846e-07 1 37.4102 21.2115)" fill="#A6A6A6" fill-opacity="0.5"/>
<rect width="2.15055" height="0.460455" rx="0.230228" transform="matrix(-1 -1.74846e-07 -1.74846e-07 1 36.9492 23.6673)" fill="#A6A6A6" fill-opacity="0.5"/>
<rect width="3.07221" height="2.30227" rx="0.430476" transform="matrix(-1 -1.74846e-07 -1.74846e-07 1 43.0654 21.2115)" fill="#A6A6A6" fill-opacity="0.5"/>
<rect width="2.15055" height="0.460455" rx="0.230228" transform="matrix(-1 -1.74846e-07 -1.74846e-07 1 42.6045 23.6673)" fill="#A6A6A6" fill-opacity="0.5"/>
<rect width="3.07221" height="2.30227" rx="0.430476" transform="matrix(-1 -1.74846e-07 -1.74846e-07 1 48.7202 21.2115)" fill="#61C3F2"/>
<rect width="2.15055" height="0.460455" rx="0.230228" transform="matrix(-1 -1.74846e-07 -1.74846e-07 1 48.2593 23.6673)" fill="#61C3F2"/>
<rect width="3.07221" height="2.30227" rx="0.430476" transform="matrix(-1 -1.74846e-07 -1.74846e-07 1 54.3755 21.2115)" fill="#61C3F2"/>
<rect width="2.15055" height="0.460455" rx="0.230228" transform="matrix(-1 -1.74846e-07 -1.74846e-07 1 53.9146 23.6673)" fill="#61C3F2"/>
<rect width="3.07221" height="2.30227" rx="0.430476" transform="matrix(-1 -1.74846e-07 -1.74846e-07 1 60.0303 21.2115)" fill="#A6A6A6" fill-opacity="0.5"/>
<rect width="2.15055" height="0.460455" rx="0.230228" transform="matrix(-1 -1.74846e-07 -1.74846e-07 1 59.5698 23.6673)" fill="#A6A6A6" fill-opacity="0.5"/>
<rect width="3.07221" height="2.30227" rx="0.430476" transform="matrix(-1 -1.74846e-07 -1.74846e-07 1 65.6855 21.2115)" fill="#A6A6A6" fill-opacity="0.5"/>
<rect width="2.15055" height="0.460455" rx="0.230228" transform="matrix(-1 -1.74846e-07 -1.74846e-07 1 65.2246 23.6673)" fill="#A6A6A6" fill-opacity="0.5"/>
<rect width="3.07221" height="2.30227" rx="0.430476" transform="matrix(-1 -1.74846e-07 -1.74846e-07 1 71.3408 21.2115)" fill="#61C3F2"/>
<rect width="2.15055" height="0.460455" rx="0.230228" transform="matrix(-1 -1.74846e-07 -1.74846e-07 1 70.8799 23.6673)" fill="#61C3F2"/>
<rect width="3.07221" height="2.30227" rx="0.430476" transform="matrix(-1 -1.74846e-07 -1.74846e-07 1 76.9956 21.2115)" fill="#61C3F2"/>
<rect width="2.15055" height="0.460455" rx="0.230228" transform="matrix(-1 -1.74846e-07 -1.74846e-07 1 76.5347 23.6673)" fill="#61C3F2"/>
<rect width="3.07221" height="2.30227" rx="0.430476" transform="matrix(-1 -1.74846e-07 -1.74846e-07 1 82.6509 21.2115)" fill="#A6A6A6" fill-opacity="0.5"/>
<rect width="2.15055" height="0.460455" rx="0.230228" transform="matrix(-1 -1.74846e-07 -1.74846e-07 1 82.1899 23.6673)" fill="#A6A6A6" fill-opacity="0.5"/>
<rect width="3.07221" height="2.30227" rx="0.430476" transform="matrix(-1 -1.74846e-07 -1.74846e-07 1 88.3057 21.2115)" fill="#A6A6A6" fill-opacity="0.5"/>
<rect width="2.15055" height="0.460455" rx="0.230228" transform="matrix(-1 -1.74846e-07 -1.74846e-07 1 87.8447 23.6673)" fill="#A6A6A6" fill-opacity="0.5"/>
<rect width="3.07221" height="2.30227" rx="0.430476" transform="matrix(-1 -1.74846e-07 -1.74846e-07 1 93.9609 21.2115)" fill="#61C3F2"/>
<rect width="2.15055" height="0.460455" rx="0.230228" transform="matrix(-1 -1.74846e-07 -1.74846e-07 1 93.5 23.6673)" fill="#61C3F2"/>
<rect width="3.07221" height="2.30227" rx="0.430476" transform="matrix(-1 -1.74846e-07 -1.74846e-07 1 99.6162 21.2115)" fill="#61C3F2"/>
<rect width="2.15055" height="0.460455" rx="0.230228" transform="matrix(-1 -1.74846e-07 -1.74846e-07 1 99.1553 23.6673)" fill="#61C3F2"/>
<rect width="3.07221" height="2.30227" rx="0.430476" transform="matrix(-1 -1.74846e-07 -1.74846e-07 1 105.271 21.2115)" fill="#A6A6A6" fill-opacity="0.5"/>
<rect width="2.15055" height="0.460455" rx="0.230228" transform="matrix(-1 -1.74846e-07 -1.74846e-07 1 104.81 23.6673)" fill="#A6A6A6" fill-opacity="0.5"/>
<rect width="3.07221" height="2.30227" rx="0.430476" transform="matrix(-1 -1.74846e-07 -1.74846e-07 1 110.926 21.2115)" fill="#A6A6A6" fill-opacity="0.5"/>
<rect width="2.15055" height="0.460455" rx="0.230228" transform="matrix(-1 -1.74846e-07 -1.74846e-07 1 110.465 23.6673)" fill="#A6A6A6" fill-opacity="0.5"/>
<rect width="3.07221" height="2.30227" rx="0.430476" transform="matrix(-1 -1.74846e-07 -1.74846e-07 1 122.236 21.2115)" fill="#A6A6A6" fill-opacity="0.5"/>
<rect width="2.15055" height="0.460455" rx="0.230228" transform="matrix(-1 -1.74846e-07 -1.74846e-07 1 121.775 23.6673)" fill="#A6A6A6" fill-opacity="0.5"/>
<rect width="3.07221" height="2.30227" rx="0.430476" transform="matrix(-1 -1.74846e-07 -1.74846e-07 1 127.891 21.2115)" fill="#61C3F2"/>
<rect width="2.15055" height="0.460455" rx="0.230228" transform="matrix(-1 -1.74846e-07 -1.74846e-07 1 127.43 23.6673)" fill="#61C3F2"/>
<rect width="3.07221" height="2.30227" rx="0.430476" transform="matrix(-1 -1.74846e-07 -1.74846e-07 1 133.546 21.2115)" fill="#A6A6A6" fill-opacity="0.5"/>
<rect width="2.15055" height="0.460455" rx="0.230228" transform="matrix(-1 -1.74846e-07 -1.74846e-07 1 133.085 23.6673)" fill="#A6A6A6" fill-opacity="0.5"/>
<rect width="3.07221" height="2.30227" rx="0.430476" transform="matrix(-1 -1.74846e-07 -1.74846e-07 1 139.201 21.2115)" fill="#61C3F2"/>
<rect width="2.15055" height="0.460455" rx="0.230228" transform="matrix(-1 -1.74846e-07 -1.74846e-07 1 138.74 23.6673)" fill="#61C3F2"/>
<rect width="3.07221" height="2.30227" rx="0.430476" transform="matrix(-1 -1.74846e-07 -1.74846e-07 1 9.13477 28.002)" fill="#A6A6A6" fill-opacity="0.5"/>
<rect width="2.15055" height="0.460455" rx="0.230228" transform="matrix(-1 -1.74846e-07 -1.74846e-07 1 8.67432 30.4578)" fill="#A6A6A6" fill-opacity="0.5"/>
<rect width="3.07221" height="2.30227" rx="0.430476" transform="matrix(-1 -1.74846e-07 -1.74846e-07 1 14.79 28.002)" fill="#61C3F2"/>
<rect width="2.15055" height="0.460455" rx="0.230228" transform="matrix(-1 -1.74846e-07 -1.74846e-07 1 14.3291 30.4578)" fill="#61C3F2"/>
<rect width="3.07221" height="2.30227" rx="0.430476" transform="matrix(-1 -1.74846e-07 -1.74846e-07 1 20.4448 28.002)" fill="#A6A6A6" fill-opacity="0.5"/>
<rect width="2.15055" height="0.460455" rx="0.230228" transform="matrix(-1 -1.74846e-07 -1.74846e-07 1 19.9844 30.4578)" fill="#A6A6A6" fill-opacity="0.5"/>
<rect width="3.07221" height="2.30227" rx="0.430476" transform="matrix(-1 -1.74846e-07 -1.74846e-07 1 26.1001 28.002)" fill="#A6A6A6" fill-opacity="0.5"/>
<rect width="2.15055" height="0.460455" rx="0.230228" transform="matrix(-1 -1.74846e-07 -1.74846e-07 1 25.6392 30.4578)" fill="#A6A6A6" fill-opacity="0.5"/>
<rect width="3.07221" height="2.30227" rx="0.430476" transform="matrix(-1 -1.74846e-07 -1.74846e-07 1 37.4102 28.002)" fill="#15D2BC"/>
<rect width="2.15055" height="0.460455" rx="0.230228" transform="matrix(-1 -1.74846e-07 -1.74846e-07 1 36.9492 30.4578)" fill="#15D2BC"/>
<rect width="3.07221" height="2.30227" rx="0.430476" transform="matrix(-1 -1.74846e-07 -1.74846e-07 1 43.0654 28.002)" fill="#15D2BC"/>
<rect width="2.15055" height="0.460455" rx="0.230228" transform="matrix(-1 -1.74846e-07 -1.74846e-07 1 42.6045 30.4578)" fill="#15D2BC"/>
<rect width="3.07221" height="2.30227" rx="0.430476" transform="matrix(-1 -1.74846e-07 -1.74846e-07 1 48.7202 28.002)" fill="#A6A6A6" fill-opacity="0.5"/>
<rect width="2.15055" height="0.460455" rx="0.230228" transform="matrix(-1 -1.74846e-07 -1.74846e-07 1 48.2593 30.4578)" fill="#A6A6A6" fill-opacity="0.5"/>
<rect width="3.07221" height="2.30227" rx="0.430476" transform="matrix(-1 -1.74846e-07 -1.74846e-07 1 54.3755 28.002)" fill="#A6A6A6" fill-opacity="0.5"/>
<rect width="2.15055" height="0.460455" rx="0.230228" transform="matrix(-1 -1.74846e-07 -1.74846e-07 1 53.9146 30.4578)" fill="#A6A6A6" fill-opacity="0.5"/>
<rect width="3.07221" height="2.30227" rx="0.430476" transform="matrix(-1 -1.74846e-07 -1.74846e-07 1 60.0303 28.002)" fill="#61C3F2"/>
<rect width="2.15055" height="0.460455" rx="0.230228" transform="matrix(-1 -1.74846e-07 -1.74846e-07 1 59.5698 30.4578)" fill="#61C3F2"/>
<rect width="3.07221" height="2.30227" rx="0.430476" transform="matrix(-1 -1.74846e-07 -1.74846e-07 1 65.6855 28.002)" fill="#61C3F2"/>
<rect width="2.15055" height="0.460455" rx="0.230228" transform="matrix(-1 -1.74846e-07 -1.74846e-07 1 65.2246 30.4578)" fill="#61C3F2"/>
<rect width="3.07221" height="2.30227" rx="0.430476" transform="matrix(-1 -1.74846e-07 -1.74846e-07 1 71.3408 28.002)" fill="#A6A6A6" fill-opacity="0.5"/>
<rect width="2.15055" height="0.460455" rx="0.230228" transform="matrix(-1 -1.74846e-07 -1.74846e-07 1 70.8799 30.4578)" fill="#A6A6A6" fill-opacity="0.5"/>
<rect width="3.07221" height="2.30227" rx="0.430476" transform="matrix(-1 -1.74846e-07 -1.74846e-07 1 76.9956 28.002)" fill="#A6A6A6" fill-opacity="0.5"/>
<rect width="2.15055" height="0.460455" rx="0.230228" transform="matrix(-1 -1.74846e-07 -1.74846e-07 1 76.5347 30.4578)" fill="#A6A6A6" fill-opacity="0.5"/>
<rect width="3.07221" height="2.30227" rx="0.430476" transform="matrix(-1 -1.74846e-07 -1.74846e-07 1 82.6509 28.002)" fill="#61C3F2"/>
<rect width="2.15055" height="0.460455" rx="0.230228" transform="matrix(-1 -1.74846e-07 -1.74846e-07 1 82.1899 30.4578)" fill="#61C3F2"/>
<rect width="3.07221" height="2.30227" rx="0.430476" transform="matrix(-1 -1.74846e-07 -1.74846e-07 1 88.3057 28.002)" fill="#61C3F2"/>
<rect width="2.15055" height="0.460455" rx="0.230228" transform="matrix(-1 -1.74846e-07 -1.74846e-07 1 87.8447 30.4578)" fill="#61C3F2"/>
<rect width="3.07221" height="2.30227" rx="0.430476" transform="matrix(-1 -1.74846e-07 -1.74846e-07 1 93.9609 28.002)" fill="#A6A6A6" fill-opacity="0.5"/>
<rect width="2.15055" height="0.460455" rx="0.230228" transform="matrix(-1 -1.74846e-07 -1.74846e-07 1 93.5 30.4578)" fill="#A6A6A6" fill-opacity="0.5"/>
<rect width="3.07221" height="2.30227" rx="0.430476" transform="matrix(-1 -1.74846e-07 -1.74846e-07 1 99.6162 28.002)" fill="#A6A6A6" fill-opacity="0.5"/>
<rect width="2.15055" height="0.460455" rx="0.230228" transform="matrix(-1 -1.74846e-07 -1.74846e-07 1 99.1553 30.4578)" fill="#A6A6A6" fill-opacity="0.5"/>
<rect width="3.07221" height="2.30227" rx="0.430476" transform="matrix(-1 -1.74846e-07 -1.74846e-07 1 105.271 28.002)" fill="#15D2BC"/>
<rect width="2.15055" height="0.460455" rx="0.230228" transform="matrix(-1 -1.74846e-07 -1.74846e-07 1 104.81 30.4578)" fill="#15D2BC"/>
<rect width="3.07221" height="2.30227" rx="0.430476" transform="matrix(-1 -1.74846e-07 -1.74846e-07 1 110.926 28.002)" fill="#15D2BC"/>
<rect width="2.15055" height="0.460455" rx="0.230228" transform="matrix(-1 -1.74846e-07 -1.74846e-07 1 110.465 30.4578)" fill="#15D2BC"/>
<rect width="3.07221" height="2.30227" rx="0.430476" transform="matrix(-1 -1.74846e-07 -1.74846e-07 1 122.236 28.002)" fill="#A6A6A6" fill-opacity="0.5"/>
<rect width="2.15055" height="0.460455" rx="0.230228" transform="matrix(-1 -1.74846e-07 -1.74846e-07 1 121.775 30.4578)" fill="#A6A6A6" fill-opacity="0.5"/>
<rect width="3.07221" height="2.30227" rx="0.430476" transform="matrix(-1 -1.74846e-07 -1.74846e-07 1 127.891 28.002)" fill="#A6A6A6" fill-opacity="0.5"/>
<rect width="2.15055" height="0.460455" rx="0.230228" transform="matrix(-1 -1.74846e-07 -1.74846e-07 1 127.43 30.4578)" fill="#A6A6A6" fill-opacity="0.5"/>
<rect width="3.07221" height="2.30227" rx="0.430476" transform="matrix(-1 -1.74846e-07 -1.74846e-07 1 133.546 28.002)" fill="#61C3F2"/>
<rect width="2.15055" height="0.460455" rx="0.230228" transform="matrix(-1 -1.74846e-07 -1.74846e-07 1 133.085 30.4578)" fill="#61C3F2"/>
<rect width="3.07221" height="2.30227" rx="0.430476" transform="matrix(-1 -1.74846e-07 -1.74846e-07 1 139.201 28.002)" fill="#A6A6A6" fill-opacity="0.5"/>
<rect width="2.15055" height="0.460455" rx="0.230228" transform="matrix(-1 -1.74846e-07 -1.74846e-07 1 138.74 30.4578)" fill="#A6A6A6" fill-opacity="0.5"/>
<rect width="3.07221" height="2.30227" rx="0.430476" transform="matrix(-1 -1.74846e-07 -1.74846e-07 1 9.13477 34.7925)" fill="#A6A6A6" fill-opacity="0.5"/>
<rect width="2.15055" height="0.460455" rx="0.230228" transform="matrix(-1 -1.74846e-07 -1.74846e-07 1 8.67432 37.2483)" fill="#A6A6A6" fill-opacity="0.5"/>
<rect width="3.07221" height="2.30227" rx="0.430476" transform="matrix(-1 -1.74846e-07 -1.74846e-07 1 14.79 34.7925)" fill="#A6A6A6" fill-opacity="0.5"/>
<rect width="2.15055" height="0.460455" rx="0.230228" transform="matrix(-1 -1.74846e-07 -1.74846e-07 1 14.3291 37.2483)" fill="#A6A6A6" fill-opacity="0.5"/>
<rect width="3.07221" height="2.30227" rx="0.430476" transform="matrix(-1 -1.74846e-07 -1.74846e-07 1 20.4448 34.7925)" fill="#61C3F2"/>
<rect width="2.15055" height="0.460455" rx="0.230228" transform="matrix(-1 -1.74846e-07 -1.74846e-07 1 19.9844 37.2483)" fill="#61C3F2"/>
<rect width="3.07221" height="2.30227" rx="0.430476" transform="matrix(-1 -1.74846e-07 -1.74846e-07 1 26.1001 34.7925)" fill="#A6A6A6" fill-opacity="0.5"/>
<rect width="2.15055" height="0.460455" rx="0.230228" transform="matrix(-1 -1.74846e-07 -1.74846e-07 1 25.6392 37.2483)" fill="#A6A6A6" fill-opacity="0.5"/>
<rect width="3.07221" height="2.30227" rx="0.430476" transform="matrix(-1 -1.74846e-07 -1.74846e-07 1 37.4102 34.7925)" fill="#A6A6A6" fill-opacity="0.5"/>
<rect width="2.15055" height="0.460455" rx="0.230228" transform="matrix(-1 -1.74846e-07 -1.74846e-07 1 36.9492 37.2483)" fill="#A6A6A6" fill-opacity="0.5"/>
<rect width="3.07221" height="2.30227" rx="0.430476" transform="matrix(-1 -1.74846e-07 -1.74846e-07 1 43.0654 34.7925)" fill="#A6A6A6" fill-opacity="0.5"/>
<rect width="2.15055" height="0.460455" rx="0.230228" transform="matrix(-1 -1.74846e-07 -1.74846e-07 1 42.6045 37.2483)" fill="#A6A6A6" fill-opacity="0.5"/>
<rect width="3.07221" height="2.30227" rx="0.430476" transform="matrix(-1 -1.74846e-07 -1.74846e-07 1 48.7202 34.7925)" fill="#61C3F2"/>
<rect width="2.15055" height="0.460455" rx="0.230228" transform="matrix(-1 -1.74846e-07 -1.74846e-07 1 48.2593 37.2483)" fill="#61C3F2"/>
<rect width="3.07221" height="2.30227" rx="0.430476" transform="matrix(-1 -1.74846e-07 -1.74846e-07 1 54.3755 34.7925)" fill="#61C3F2"/>
<rect width="2.15055" height="0.460455" rx="0.230228" transform="matrix(-1 -1.74846e-07 -1.74846e-07 1 53.9146 37.2483)" fill="#61C3F2"/>
<rect width="3.07221" height="2.30227" rx="0.430476" transform="matrix(-1 -1.74846e-07 -1.74846e-07 1 60.0303 34.7925)" fill="#A6A6A6" fill-opacity="0.5"/>
<rect width="2.15055" height="0.460455" rx="0.230228" transform="matrix(-1 -1.74846e-07 -1.74846e-07 1 59.5698 37.2483)" fill="#A6A6A6" fill-opacity="0.5"/>
<rect width="3.07221" height="2.30227" rx="0.430476" transform="matrix(-1 -1.74846e-07 -1.74846e-07 1 65.6855 34.7925)" fill="#A6A6A6" fill-opacity="0.5"/>
<rect width="2.15055" height="0.460455" rx="0.230228" transform="matrix(-1 -1.74846e-07 -1.74846e-07 1 65.2246 37.2483)" fill="#A6A6A6" fill-opacity="0.5"/>
<rect width="3.07221" height="2.30227" rx="0.430476" transform="matrix(-1 -1.74846e-07 -1.74846e-07 1 71.3408 34.7925)" fill="#61C3F2"/>
<rect width="2.15055" height="0.460455" rx="0.230228" transform="matrix(-1 -1.74846e-07 -1.74846e-07 1 70.8799 37.2483)" fill="#61C3F2"/>
<rect width="3.07221" height="2.30227" rx="0.430476" transform="matrix(-1 -1.74846e-07 -1.74846e-07 1 76.9956 34.7925)" fill="#61C3F2"/>
<rect width="2.15055" height="0.460455" rx="0.230228" transform="matrix(-1 -1.74846e-07 -1.74846e-07 1 76.5347 37.2483)" fill="#61C3F2"/>
<rect width="3.07221" height="2.30227" rx="0.430476" transform="matrix(-1 -1.74846e-07 -1.74846e-07 1 82.6509 34.7925)" fill="#A6A6A6" fill-opacity="0.5"/>
<rect width="2.15055" height="0.460455" rx="0.230228" transform="matrix(-1 -1.74846e-07 -1.74846e-07 1 82.1899 37.2483)" fill="#A6A6A6" fill-opacity="0.5"/>
<rect width="3.07221" height="2.30227" rx="0.430476" transform="matrix(-1 -1.74846e-07 -1.74846e-07 1 88.3057 34.7925)" fill="#A6A6A6" fill-opacity="0.5"/>
<rect width="2.15055" height="0.460455" rx="0.230228" transform="matrix(-1 -1.74846e-07 -1.74846e-07 1 87.8447 37.2483)" fill="#A6A6A6" fill-opacity="0.5"/>
<rect width="3.07221" height="2.30227" rx="0.430476" transform="matrix(-1 -1.74846e-07 -1.74846e-07 1 93.9609 34.7925)" fill="#61C3F2"/>
<rect width="2.15055" height="0.460455" rx="0.230228" transform="matrix(-1 -1.74846e-07 -1.74846e-07 1 93.5 37.2483)" fill="#61C3F2"/>
<rect width="3.07221" height="2.30227" rx="0.430476" transform="matrix(-1 -1.74846e-07 -1.74846e-07 1 99.6162 34.7925)" fill="#61C3F2"/>
<rect width="2.15055" height="0.460455" rx="0.230228" transform="matrix(-1 -1.74846e-07 -1.74846e-07 1 99.1553 37.2483)" fill="#61C3F2"/>
<rect width="3.07221" height="2.30227" rx="0.430476" transform="matrix(-1 -1.74846e-07 -1.74846e-07 1 105.271 34.7925)" fill="#A6A6A6" fill-opacity="0.5"/>
<rect width="2.15055" height="0.460455" rx="0.230228" transform="matrix(-1 -1.74846e-07 -1.74846e-07 1 104.81 37.2483)" fill="#A6A6A6" fill-opacity="0.5"/>
<rect width="3.07221" height="2.30227" rx="0.430476" transform="matrix(-1 -1.74846e-07 -1.74846e-07 1 110.926 34.7925)" fill="#A6A6A6" fill-opacity="0.5"/>
<rect width="2.15055" height="0.460455" rx="0.230228" transform="matrix(-1 -1.74846e-07 -1.74846e-07 1 110.465 37.2483)" fill="#A6A6A6" fill-opacity="0.5"/>
<rect width="3.07221" height="2.30227" rx="0.430476" transform="matrix(-1 -1.74846e-07 -1.74846e-07 1 122.236 34.7925)" fill="#A6A6A6" fill-opacity="0.5"/>
<rect width="2.15055" height="0.460455" rx="0.230228" transform="matrix(-1 -1.74846e-07 -1.74846e-07 1 121.775 37.2483)" fill="#A6A6A6" fill-opacity="0.5"/>
<rect width="3.07221" height="2.30227" rx="0.430476" transform="matrix(-1 -1.74846e-07 -1.74846e-07 1 127.891 34.7925)" fill="#61C3F2"/>
<rect width="2.15055" height="0.460455" rx="0.230228" transform="matrix(-1 -1.74846e-07 -1.74846e-07 1 127.43 37.2483)" fill="#61C3F2"/>
<rect width="3.07221" height="2.30227" rx="0.430476" transform="matrix(-1 -1.74846e-07 -1.74846e-07 1 133.546 34.7926)" fill="#A6A6A6" fill-opacity="0.5"/>
<rect width="2.15055" height="0.460455" rx="0.230228" transform="matrix(-1 -1.74846e-07 -1.74846e-07 1 133.085 37.2483)" fill="#A6A6A6" fill-opacity="0.5"/>
<rect width="3.07221" height="2.30227" rx="0.430476" transform="matrix(-1 -1.74846e-07 -1.74846e-07 1 139.201 34.7926)" fill="#A6A6A6" fill-opacity="0.5"/>
<rect width="2.15055" height="0.460455" rx="0.230228" transform="matrix(-1 -1.74846e-07 -1.74846e-07 1 138.74 37.2483)" fill="#A6A6A6" fill-opacity="0.5"/>
<rect width="3.07221" height="2.30227" rx="0.430476" transform="matrix(-1 -1.74846e-07 -1.74846e-07 1 3.47998 41.583)" fill="#61C3F2"/>
<rect width="2.15055" height="0.460455" rx="0.230228" transform="matrix(-1 -1.74846e-07 -1.74846e-07 1 3.01904 44.0388)" fill="#61C3F2"/>
<rect width="3.07221" height="2.30227" rx="0.430476" transform="matrix(-1 -1.74846e-07 -1.74846e-07 1 9.13477 41.583)" fill="#61C3F2"/>
<rect width="2.15055" height="0.460455" rx="0.230228" transform="matrix(-1 -1.74846e-07 -1.74846e-07 1 8.67432 44.0388)" fill="#61C3F2"/>
<rect width="3.07221" height="2.30227" rx="0.430476" transform="matrix(-1 -1.74846e-07 -1.74846e-07 1 14.79 41.583)" fill="#A6A6A6" fill-opacity="0.5"/>
<rect width="2.15055" height="0.460455" rx="0.230228" transform="matrix(-1 -1.74846e-07 -1.74846e-07 1 14.3291 44.0388)" fill="#A6A6A6" fill-opacity="0.5"/>
<rect width="3.07221" height="2.30227" rx="0.430476" transform="matrix(-1 -1.74846e-07 -1.74846e-07 1 20.4448 41.583)" fill="#A6A6A6" fill-opacity="0.5"/>
<rect width="2.15055" height="0.460455" rx="0.230228" transform="matrix(-1 -1.74846e-07 -1.74846e-07 1 19.9844 44.0388)" fill="#A6A6A6" fill-opacity="0.5"/>
<rect width="3.07221" height="2.30227" rx="0.430476" transform="matrix(-1 -1.74846e-07 -1.74846e-07 1 26.1001 41.583)" fill="#A6A6A6" fill-opacity="0.5"/>
<rect width="2.15055" height="0.460455" rx="0.230228" transform="matrix(-1 -1.74846e-07 -1.74846e-07 1 25.6392 44.0388)" fill="#A6A6A6" fill-opacity="0.5"/>
<rect width="3.07221" height="2.30227" rx="0.430476" transform="matrix(-1 -1.74846e-07 -1.74846e-07 1 37.4102 41.583)" fill="#E26CA5"/>
<rect width="2.15055" height="0.460455" rx="0.230228" transform="matrix(-1 -1.74846e-07 -1.74846e-07 1 36.9492 44.0388)" fill="#E26CA5"/>
<rect width="3.07221" height="2.30227" rx="0.430476" transform="matrix(-1 -1.74846e-07 -1.74846e-07 1 43.0654 41.583)" fill="#E26CA5"/>
<rect width="2.15055" height="0.460455" rx="0.230228" transform="matrix(-1 -1.74846e-07 -1.74846e-07 1 42.6045 44.0388)" fill="#E26CA5"/>
<rect width="3.07221" height="2.30227" rx="0.430476" transform="matrix(-1 -1.74846e-07 -1.74846e-07 1 48.7202 41.583)" fill="#A6A6A6" fill-opacity="0.5"/>
<rect width="2.15055" height="0.460455" rx="0.230228" transform="matrix(-1 -1.74846e-07 -1.74846e-07 1 48.2593 44.0388)" fill="#A6A6A6" fill-opacity="0.5"/>
<rect width="3.07221" height="2.30227" rx="0.430476" transform="matrix(-1 -1.74846e-07 -1.74846e-07 1 54.3755 41.583)" fill="#A6A6A6" fill-opacity="0.5"/>
<rect width="2.15055" height="0.460455" rx="0.230228" transform="matrix(-1 -1.74846e-07 -1.74846e-07 1 53.9146 44.0388)" fill="#A6A6A6" fill-opacity="0.5"/>
<rect width="3.07221" height="2.30227" rx="0.430476" transform="matrix(-1 -1.74846e-07 -1.74846e-07 1 60.0303 41.5831)" fill="#61C3F2"/>
<rect width="2.15055" height="0.460455" rx="0.230228" transform="matrix(-1 -1.74846e-07 -1.74846e-07 1 59.5698 44.0388)" fill="#61C3F2"/>
<rect width="3.07221" height="2.30227" rx="0.430476" transform="matrix(-1 -1.74846e-07 -1.74846e-07 1 65.6855 41.5831)" fill="#61C3F2"/>
<rect width="2.15055" height="0.460455" rx="0.230228" transform="matrix(-1 -1.74846e-07 -1.74846e-07 1 65.2246 44.0388)" fill="#61C3F2"/>
<rect width="3.07221" height="2.30227" rx="0.430476" transform="matrix(-1 -1.74846e-07 -1.74846e-07 1 71.3408 41.5831)" fill="#A6A6A6" fill-opacity="0.5"/>
<rect width="2.15055" height="0.460455" rx="0.230228" transform="matrix(-1 -1.74846e-07 -1.74846e-07 1 70.8799 44.0388)" fill="#A6A6A6" fill-opacity="0.5"/>
<rect width="3.07221" height="2.30227" rx="0.430476" transform="matrix(-1 -1.74846e-07 -1.74846e-07 1 76.9956 41.5831)" fill="#A6A6A6" fill-opacity="0.5"/>
<rect width="2.15055" height="0.460455" rx="0.230228" transform="matrix(-1 -1.74846e-07 -1.74846e-07 1 76.5347 44.0388)" fill="#A6A6A6" fill-opacity="0.5"/>
<rect width="3.07221" height="2.30227" rx="0.430476" transform="matrix(-1 -1.74846e-07 -1.74846e-07 1 82.6509 41.5831)" fill="#61C3F2"/>
<rect width="2.15055" height="0.460455" rx="0.230228" transform="matrix(-1 -1.74846e-07 -1.74846e-07 1 82.1899 44.0388)" fill="#61C3F2"/>
<rect width="3.07221" height="2.30227" rx="0.430476" transform="matrix(-1 -1.74846e-07 -1.74846e-07 1 88.3057 41.5831)" fill="#61C3F2"/>
<rect width="2.15055" height="0.460455" rx="0.230228" transform="matrix(-1 -1.74846e-07 -1.74846e-07 1 87.8447 44.0388)" fill="#61C3F2"/>
<rect width="3.07221" height="2.30227" rx="0.430476" transform="matrix(-1 -1.74846e-07 -1.74846e-07 1 93.9609 41.5831)" fill="#A6A6A6" fill-opacity="0.5"/>
<rect width="2.15055" height="0.460455" rx="0.230228" transform="matrix(-1 -1.74846e-07 -1.74846e-07 1 93.5 44.0388)" fill="#A6A6A6" fill-opacity="0.5"/>
<rect width="3.07221" height="2.30227" rx="0.430476" transform="matrix(-1 -1.74846e-07 -1.74846e-07 1 99.6162 41.5831)" fill="#A6A6A6" fill-opacity="0.5"/>
<rect width="2.15055" height="0.460455" rx="0.230228" transform="matrix(-1 -1.74846e-07 -1.74846e-07 1 99.1553 44.0388)" fill="#A6A6A6" fill-opacity="0.5"/>
<rect width="3.07221" height="2.30227" rx="0.430476" transform="matrix(-1 -1.74846e-07 -1.74846e-07 1 105.271 41.5831)" fill="#E26CA5"/>
<rect width="2.15055" height="0.460455" rx="0.230228" transform="matrix(-1 -1.74846e-07 -1.74846e-07 1 104.81 44.0388)" fill="#E26CA5"/>
<rect width="3.07221" height="2.30227" rx="0.430476" transform="matrix(-1 -1.74846e-07 -1.74846e-07 1 110.926 41.5831)" fill="#E26CA5"/>
<rect width="2.15055" height="0.460455" rx="0.230228" transform="matrix(-1 -1.74846e-07 -1.74846e-07 1 110.465 44.0388)" fill="#E26CA5"/>
<rect width="3.07221" height="2.30227" rx="0.430476" transform="matrix(-1 -1.74846e-07 -1.74846e-07 1 122.236 41.5831)" fill="#A6A6A6" fill-opacity="0.5"/>
<rect width="2.15055" height="0.460455" rx="0.230228" transform="matrix(-1 -1.74846e-07 -1.74846e-07 1 121.775 44.0388)" fill="#A6A6A6" fill-opacity="0.5"/>
<rect width="3.07221" height="2.30227" rx="0.430476" transform="matrix(-1 -1.74846e-07 -1.74846e-07 1 127.891 41.5831)" fill="#A6A6A6" fill-opacity="0.5"/>
<rect width="2.15055" height="0.460455" rx="0.230228" transform="matrix(-1 -1.74846e-07 -1.74846e-07 1 127.43 44.0388)" fill="#A6A6A6" fill-opacity="0.5"/>
<rect width="3.07221" height="2.30227" rx="0.430476" transform="matrix(-1 -1.74846e-07 -1.74846e-07 1 133.546 41.5831)" fill="#A6A6A6" fill-opacity="0.5"/>
<rect width="2.15055" height="0.460455" rx="0.230228" transform="matrix(-1 -1.74846e-07 -1.74846e-07 1 133.085 44.0388)" fill="#A6A6A6" fill-opacity="0.5"/>
<rect width="3.07221" height="2.30227" rx="0.430476" transform="matrix(-1 -1.74846e-07 -1.74846e-07 1 139.201 41.5831)" fill="#61C3F2"/>
<rect width="2.15055" height="0.460455" rx="0.230228" transform="matrix(-1 -1.74846e-07 -1.74846e-07 1 138.74 44.0388)" fill="#61C3F2"/>
<rect width="3.07221" height="2.30227" rx="0.430476" transform="matrix(-1 -1.74846e-07 -1.74846e-07 1 144.856 41.5831)" fill="#61C3F2"/>
<rect width="2.15055" height="0.460455" rx="0.230228" transform="matrix(-1 -1.74846e-07 -1.74846e-07 1 144.396 44.0388)" fill="#61C3F2"/>
<rect width="3.07221" height="2.30227" rx="0.430476" transform="matrix(-1 -1.74846e-07 -1.74846e-07 1 3.47998 48.3736)" fill="#A6A6A6" fill-opacity="0.5"/>
<rect width="2.15055" height="0.460455" rx="0.230228" transform="matrix(-1 -1.74846e-07 -1.74846e-07 1 3.01904 50.8293)" fill="#A6A6A6" fill-opacity="0.5"/>
<rect width="3.07221" height="2.30227" rx="0.430476" transform="matrix(-1 -1.74846e-07 -1.74846e-07 1 9.13477 48.3736)" fill="#A6A6A6" fill-opacity="0.5"/>
<rect width="2.15055" height="0.460455" rx="0.230228" transform="matrix(-1 -1.74846e-07 -1.74846e-07 1 8.67432 50.8293)" fill="#A6A6A6" fill-opacity="0.5"/>
<rect width="3.07221" height="2.30227" rx="0.430476" transform="matrix(-1 -1.74846e-07 -1.74846e-07 1 14.79 48.3736)" fill="#61C3F2"/>
<rect width="2.15055" height="0.460455" rx="0.230228" transform="matrix(-1 -1.74846e-07 -1.74846e-07 1 14.3291 50.8293)" fill="#61C3F2"/>
<rect width="3.07221" height="2.30227" rx="0.430476" transform="matrix(-1 -1.74846e-07 -1.74846e-07 1 20.4448 48.3736)" fill="#61C3F2"/>
<rect width="2.15055" height="0.460455" rx="0.230228" transform="matrix(-1 -1.74846e-07 -1.74846e-07 1 19.9844 50.8293)" fill="#61C3F2"/>
<rect width="3.07221" height="2.30227" rx="0.430476" transform="matrix(-1 -1.74846e-07 -1.74846e-07 1 26.1001 48.3736)" fill="#A6A6A6" fill-opacity="0.5"/>
<rect width="2.15055" height="0.460455" rx="0.230228" transform="matrix(-1 -1.74846e-07 -1.74846e-07 1 25.6392 50.8293)" fill="#A6A6A6" fill-opacity="0.5"/>
<rect width="3.07221" height="2.30227" rx="0.430476" transform="matrix(-1 -1.74846e-07 -1.74846e-07 1 37.4102 48.3736)" fill="#A6A6A6" fill-opacity="0.5"/>
<rect width="2.15055" height="0.460455" rx="0.230228" transform="matrix(-1 -1.74846e-07 -1.74846e-07 1 36.9492 50.8293)" fill="#A6A6A6" fill-opacity="0.5"/>
<rect width="3.07221" height="2.30227" rx="0.430476" transform="matrix(-1 -1.74846e-07 -1.74846e-07 1 43.0654 48.3736)" fill="#A6A6A6" fill-opacity="0.5"/>
<rect width="2.15055" height="0.460455" rx="0.230228" transform="matrix(-1 -1.74846e-07 -1.74846e-07 1 42.6045 50.8293)" fill="#A6A6A6" fill-opacity="0.5"/>
<rect width="3.07221" height="2.30227" rx="0.430476" transform="matrix(-1 -1.74846e-07 -1.74846e-07 1 48.7202 48.3736)" fill="#61C3F2"/>
<rect width="2.15055" height="0.460455" rx="0.230228" transform="matrix(-1 -1.74846e-07 -1.74846e-07 1 48.2593 50.8293)" fill="#61C3F2"/>
<rect width="3.07221" height="2.30227" rx="0.430476" transform="matrix(-1 -1.74846e-07 -1.74846e-07 1 54.3755 48.3736)" fill="#61C3F2"/>
<rect width="2.15055" height="0.460455" rx="0.230228" transform="matrix(-1 -1.74846e-07 -1.74846e-07 1 53.9146 50.8293)" fill="#61C3F2"/>
<rect width="3.07221" height="2.30227" rx="0.430476" transform="matrix(-1 -1.74846e-07 -1.74846e-07 1 60.0303 48.3736)" fill="#A6A6A6" fill-opacity="0.5"/>
<rect width="2.15055" height="0.460455" rx="0.230228" transform="matrix(-1 -1.74846e-07 -1.74846e-07 1 59.5698 50.8293)" fill="#A6A6A6" fill-opacity="0.5"/>
<rect width="3.07221" height="2.30227" rx="0.430476" transform="matrix(-1 -1.74846e-07 -1.74846e-07 1 65.6855 48.3736)" fill="#A6A6A6" fill-opacity="0.5"/>
<rect width="2.15055" height="0.460455" rx="0.230228" transform="matrix(-1 -1.74846e-07 -1.74846e-07 1 65.2246 50.8293)" fill="#A6A6A6" fill-opacity="0.5"/>
<rect width="3.07221" height="2.30227" rx="0.430476" transform="matrix(-1 -1.74846e-07 -1.74846e-07 1 71.3408 48.3736)" fill="#564CA3"/>
<rect width="2.15055" height="0.460455" rx="0.230228" transform="matrix(-1 -1.74846e-07 -1.74846e-07 1 70.8799 50.8293)" fill="#564CA3"/>
<rect width="3.07221" height="2.30227" rx="0.430476" transform="matrix(-1 -1.74846e-07 -1.74846e-07 1 76.9956 48.3736)" fill="#564CA3"/>
<rect width="2.15055" height="0.460455" rx="0.230228" transform="matrix(-1 -1.74846e-07 -1.74846e-07 1 76.5347 50.8293)" fill="#564CA3"/>
<rect width="3.07221" height="2.30227" rx="0.430476" transform="matrix(-1 -1.74846e-07 -1.74846e-07 1 82.6509 48.3736)" fill="#A6A6A6" fill-opacity="0.5"/>
<rect width="2.15055" height="0.460455" rx="0.230228" transform="matrix(-1 -1.74846e-07 -1.74846e-07 1 82.1899 50.8293)" fill="#A6A6A6" fill-opacity="0.5"/>
<rect width="3.07221" height="2.30227" rx="0.430476" transform="matrix(-1 -1.74846e-07 -1.74846e-07 1 88.3057 48.3736)" fill="#A6A6A6" fill-opacity="0.5"/>
<rect width="2.15055" height="0.460455" rx="0.230228" transform="matrix(-1 -1.74846e-07 -1.74846e-07 1 87.8447 50.8293)" fill="#A6A6A6" fill-opacity="0.5"/>
<rect width="3.07221" height="2.30227" rx="0.430476" transform="matrix(-1 -1.74846e-07 -1.74846e-07 1 93.9609 48.3736)" fill="#61C3F2"/>
<rect width="2.15055" height="0.460455" rx="0.230228" transform="matrix(-1 -1.74846e-07 -1.74846e-07 1 93.5 50.8293)" fill="#61C3F2"/>
<rect width="3.07221" height="2.30227" rx="0.430476" transform="matrix(-1 -1.74846e-07 -1.74846e-07 1 99.6162 48.3736)" fill="#61C3F2"/>
<rect width="2.15055" height="0.460455" rx="0.230228" transform="matrix(-1 -1.74846e-07 -1.74846e-07 1 99.1553 50.8293)" fill="#61C3F2"/>
<rect width="3.07221" height="2.30227" rx="0.430476" transform="matrix(-1 -1.74846e-07 -1.74846e-07 1 105.271 48.3736)" fill="#A6A6A6" fill-opacity="0.5"/>
<rect width="2.15055" height="0.460455" rx="0.230228" transform="matrix(-1 -1.74846e-07 -1.74846e-07 1 104.81 50.8293)" fill="#A6A6A6" fill-opacity="0.5"/>
<rect width="3.07221" height="2.30227" rx="0.430476" transform="matrix(-1 -1.74846e-07 -1.74846e-07 1 110.926 48.3736)" fill="#A6A6A6" fill-opacity="0.5"/>
<rect width="2.15055" height="0.460455" rx="0.230228" transform="matrix(-1 -1.74846e-07 -1.74846e-07 1 110.465 50.8293)" fill="#A6A6A6" fill-opacity="0.5"/>
<rect width="3.07221" height="2.30227" rx="0.430476" transform="matrix(-1 -1.74846e-07 -1.74846e-07 1 122.236 48.3736)" fill="#A6A6A6" fill-opacity="0.5"/>
<rect width="2.15055" height="0.460455" rx="0.230228" transform="matrix(-1 -1.74846e-07 -1.74846e-07 1 121.775 50.8293)" fill="#A6A6A6" fill-opacity="0.5"/>
<rect width="3.07221" height="2.30227" rx="0.430476" transform="matrix(-1 -1.74846e-07 -1.74846e-07 1 127.891 48.3736)" fill="#61C3F2"/>
<rect width="2.15055" height="0.460455" rx="0.230228" transform="matrix(-1 -1.74846e-07 -1.74846e-07 1 127.43 50.8293)" fill="#61C3F2"/>
<rect width="3.07221" height="2.30227" rx="0.430476" transform="matrix(-1 -1.74846e-07 -1.74846e-07 1 133.546 48.3736)" fill="#61C3F2"/>
<rect width="2.15055" height="0.460455" rx="0.230228" transform="matrix(-1 -1.74846e-07 -1.74846e-07 1 133.085 50.8293)" fill="#61C3F2"/>
<rect width="3.07221" height="2.30227" rx="0.430476" transform="matrix(-1 -1.74846e-07 -1.74846e-07 1 139.201 48.3736)" fill="#A6A6A6" fill-opacity="0.5"/>
<rect width="2.15055" height="0.460455" rx="0.230228" transform="matrix(-1 -1.74846e-07 -1.74846e-07 1 138.74 50.8293)" fill="#A6A6A6" fill-opacity="0.5"/>
<rect width="3.07221" height="2.30227" rx="0.430476" transform="matrix(-1 -1.74846e-07 -1.74846e-07 1 144.856 48.3736)" fill="#A6A6A6" fill-opacity="0.5"/>
<rect width="2.15055" height="0.460455" rx="0.230228" transform="matrix(-1 -1.74846e-07 -1.74846e-07 1 144.396 50.8293)" fill="#A6A6A6" fill-opacity="0.5"/>
<rect width="3.07221" height="2.30227" rx="0.430476" transform="matrix(-1 -1.74846e-07 -1.74846e-07 1 3.47998 55.164)" fill="#61C3F2"/>
<rect width="2.15055" height="0.460455" rx="0.230228" transform="matrix(-1 -1.74846e-07 -1.74846e-07 1 3.01904 57.6198)" fill="#61C3F2"/>
<rect width="3.07221" height="2.30227" rx="0.430476" transform="matrix(-1 -1.74846e-07 -1.74846e-07 1 9.13477 55.164)" fill="#61C3F2"/>
<rect width="2.15055" height="0.460455" rx="0.230228" transform="matrix(-1 -1.74846e-07 -1.74846e-07 1 8.67432 57.6198)" fill="#61C3F2"/>
<rect width="3.07221" height="2.30227" rx="0.430476" transform="matrix(-1 -1.74846e-07 -1.74846e-07 1 14.79 55.164)" fill="#A6A6A6" fill-opacity="0.5"/>
<rect width="2.15055" height="0.460455" rx="0.230228" transform="matrix(-1 -1.74846e-07 -1.74846e-07 1 14.3291 57.6198)" fill="#A6A6A6" fill-opacity="0.5"/>
<rect width="3.07221" height="2.30227" rx="0.430476" transform="matrix(-1 -1.74846e-07 -1.74846e-07 1 20.4448 55.164)" fill="#A6A6A6" fill-opacity="0.5"/>
<rect width="2.15055" height="0.460455" rx="0.230228" transform="matrix(-1 -1.74846e-07 -1.74846e-07 1 19.9844 57.6198)" fill="#A6A6A6" fill-opacity="0.5"/>
<rect width="3.07221" height="2.30227" rx="0.430476" transform="matrix(-1 -1.74846e-07 -1.74846e-07 1 26.1001 55.164)" fill="#A6A6A6" fill-opacity="0.5"/>
<rect width="2.15055" height="0.460455" rx="0.230228" transform="matrix(-1 -1.74846e-07 -1.74846e-07 1 25.6392 57.6198)" fill="#A6A6A6" fill-opacity="0.5"/>
<rect width="3.07221" height="2.30227" rx="0.430476" transform="matrix(-1 -1.74846e-07 -1.74846e-07 1 37.4102 55.164)" fill="#15D2BC"/>
<rect width="2.15055" height="0.460455" rx="0.230228" transform="matrix(-1 -1.74846e-07 -1.74846e-07 1 36.9492 57.6198)" fill="#15D2BC"/>
<rect width="3.07221" height="2.30227" rx="0.430476" transform="matrix(-1 -1.74846e-07 -1.74846e-07 1 43.0654 55.164)" fill="#15D2BC"/>
<rect width="2.15055" height="0.460455" rx="0.230228" transform="matrix(-1 -1.74846e-07 -1.74846e-07 1 42.6045 57.6198)" fill="#15D2BC"/>
<rect width="3.07221" height="2.30227" rx="0.430476" transform="matrix(-1 -1.74846e-07 -1.74846e-07 1 48.7202 55.164)" fill="#A6A6A6" fill-opacity="0.5"/>
<rect width="2.15055" height="0.460455" rx="0.230228" transform="matrix(-1 -1.74846e-07 -1.74846e-07 1 48.2593 57.6198)" fill="#A6A6A6" fill-opacity="0.5"/>
<rect width="3.07221" height="2.30227" rx="0.430476" transform="matrix(-1 -1.74846e-07 -1.74846e-07 1 54.3755 55.164)" fill="#A6A6A6" fill-opacity="0.5"/>
<rect width="2.15055" height="0.460455" rx="0.230228" transform="matrix(-1 -1.74846e-07 -1.74846e-07 1 53.9146 57.6198)" fill="#A6A6A6" fill-opacity="0.5"/>
<rect width="3.07221" height="2.30227" rx="0.430476" transform="matrix(-1 -1.74846e-07 -1.74846e-07 1 60.0303 55.1641)" fill="#61C3F2"/>
<rect width="2.15055" height="0.460455" rx="0.230228" transform="matrix(-1 -1.74846e-07 -1.74846e-07 1 59.5698 57.6198)" fill="#61C3F2"/>
<rect width="3.07221" height="2.30227" rx="0.430476" transform="matrix(-1 -1.74846e-07 -1.74846e-07 1 65.6855 55.1641)" fill="#61C3F2"/>
<rect width="2.15055" height="0.460455" rx="0.230228" transform="matrix(-1 -1.74846e-07 -1.74846e-07 1 65.2246 57.6198)" fill="#61C3F2"/>
<rect width="3.07221" height="2.30227" rx="0.430476" transform="matrix(-1 -1.74846e-07 -1.74846e-07 1 71.3408 55.1641)" fill="#A6A6A6" fill-opacity="0.5"/>
<rect width="2.15055" height="0.460455" rx="0.230228" transform="matrix(-1 -1.74846e-07 -1.74846e-07 1 70.8799 57.6198)" fill="#A6A6A6" fill-opacity="0.5"/>
<rect width="3.07221" height="2.30227" rx="0.430476" transform="matrix(-1 -1.74846e-07 -1.74846e-07 1 76.9956 55.1641)" fill="#A6A6A6" fill-opacity="0.5"/>
<rect width="2.15055" height="0.460455" rx="0.230228" transform="matrix(-1 -1.74846e-07 -1.74846e-07 1 76.5347 57.6198)" fill="#A6A6A6" fill-opacity="0.5"/>
<rect width="3.07221" height="2.30227" rx="0.430476" transform="matrix(-1 -1.74846e-07 -1.74846e-07 1 82.6509 55.1641)" fill="#61C3F2"/>
<rect width="2.15055" height="0.460455" rx="0.230228" transform="matrix(-1 -1.74846e-07 -1.74846e-07 1 82.1899 57.6198)" fill="#61C3F2"/>
<rect width="3.07221" height="2.30227" rx="0.430476" transform="matrix(-1 -1.74846e-07 -1.74846e-07 1 88.3057 55.1641)" fill="#61C3F2"/>
<rect width="2.15055" height="0.460455" rx="0.230228" transform="matrix(-1 -1.74846e-07 -1.74846e-07 1 87.8447 57.6198)" fill="#61C3F2"/>
<rect width="3.07221" height="2.30227" rx="0.430476" transform="matrix(-1 -1.74846e-07 -1.74846e-07 1 93.9609 55.1641)" fill="#A6A6A6" fill-opacity="0.5"/>
<rect width="2.15055" height="0.460455" rx="0.230228" transform="matrix(-1 -1.74846e-07 -1.74846e-07 1 93.5 57.6198)" fill="#A6A6A6" fill-opacity="0.5"/>
<rect width="3.07221" height="2.30227" rx="0.430476" transform="matrix(-1 -1.74846e-07 -1.74846e-07 1 99.6162 55.1641)" fill="#A6A6A6" fill-opacity="0.5"/>
<rect width="2.15055" height="0.460455" rx="0.230228" transform="matrix(-1 -1.74846e-07 -1.74846e-07 1 99.1553 57.6198)" fill="#A6A6A6" fill-opacity="0.5"/>
<rect width="3.07221" height="2.30227" rx="0.430476" transform="matrix(-1 -1.74846e-07 -1.74846e-07 1 105.271 55.1641)" fill="#15D2BC"/>
<rect width="2.15055" height="0.460455" rx="0.230228" transform="matrix(-1 -1.74846e-07 -1.74846e-07 1 104.81 57.6198)" fill="#15D2BC"/>
<rect width="3.07221" height="2.30227" rx="0.430476" transform="matrix(-1 -1.74846e-07 -1.74846e-07 1 110.926 55.1641)" fill="#15D2BC"/>
<rect width="2.15055" height="0.460455" rx="0.230228" transform="matrix(-1 -1.74846e-07 -1.74846e-07 1 110.465 57.6198)" fill="#15D2BC"/>
<rect width="3.07221" height="2.30227" rx="0.430476" transform="matrix(-1 -1.74846e-07 -1.74846e-07 1 122.236 55.1641)" fill="#A6A6A6" fill-opacity="0.5"/>
<rect width="2.15055" height="0.460455" rx="0.230228" transform="matrix(-1 -1.74846e-07 -1.74846e-07 1 121.775 57.6198)" fill="#A6A6A6" fill-opacity="0.5"/>
<rect width="3.07221" height="2.30227" rx="0.430476" transform="matrix(-1 -1.74846e-07 -1.74846e-07 1 127.891 55.1641)" fill="#A6A6A6" fill-opacity="0.5"/>
<rect width="2.15055" height="0.460455" rx="0.230228" transform="matrix(-1 -1.74846e-07 -1.74846e-07 1 127.43 57.6198)" fill="#A6A6A6" fill-opacity="0.5"/>
<rect width="3.07221" height="2.30227" rx="0.430476" transform="matrix(-1 -1.74846e-07 -1.74846e-07 1 133.546 55.1641)" fill="#A6A6A6" fill-opacity="0.5"/>
<rect width="2.15055" height="0.460455" rx="0.230228" transform="matrix(-1 -1.74846e-07 -1.74846e-07 1 133.085 57.6198)" fill="#A6A6A6" fill-opacity="0.5"/>
<rect width="3.07221" height="2.30227" rx="0.430476" transform="matrix(-1 -1.74846e-07 -1.74846e-07 1 139.201 55.1641)" fill="#61C3F2"/>
<rect width="2.15055" height="0.460455" rx="0.230228" transform="matrix(-1 -1.74846e-07 -1.74846e-07 1 138.74 57.6198)" fill="#61C3F2"/>
<rect width="3.07221" height="2.30227" rx="0.430476" transform="matrix(-1 -1.74846e-07 -1.74846e-07 1 144.856 55.1641)" fill="#61C3F2"/>
<rect width="2.15055" height="0.460455" rx="0.230228" transform="matrix(-1 -1.74846e-07 -1.74846e-07 1 144.396 57.6198)" fill="#61C3F2"/>
<rect width="3.07221" height="2.30227" rx="0.430476" transform="matrix(-1 -1.74846e-07 -1.74846e-07 1 3.47998 61.9546)" fill="#A6A6A6" fill-opacity="0.5"/>
<rect width="2.15055" height="0.460455" rx="0.230228" transform="matrix(-1 -1.74846e-07 -1.74846e-07 1 3.01904 64.4103)" fill="#A6A6A6" fill-opacity="0.5"/>
<rect width="3.07221" height="2.30227" rx="0.430476" transform="matrix(-1 -1.74846e-07 -1.74846e-07 1 9.13477 61.9546)" fill="#A6A6A6" fill-opacity="0.5"/>
<rect width="2.15055" height="0.460455" rx="0.230228" transform="matrix(-1 -1.74846e-07 -1.74846e-07 1 8.67432 64.4103)" fill="#A6A6A6" fill-opacity="0.5"/>
<rect width="3.07221" height="2.30227" rx="0.430476" transform="matrix(-1 -1.74846e-07 -1.74846e-07 1 14.79 61.9546)" fill="#61C3F2"/>
<rect width="2.15055" height="0.460455" rx="0.230228" transform="matrix(-1 -1.74846e-07 -1.74846e-07 1 14.3291 64.4103)" fill="#61C3F2"/>
<rect width="3.07221" height="2.30227" rx="0.430476" transform="matrix(-1 -1.74846e-07 -1.74846e-07 1 20.4448 61.9546)" fill="#61C3F2"/>
<rect width="2.15055" height="0.460455" rx="0.230228" transform="matrix(-1 -1.74846e-07 -1.74846e-07 1 19.9844 64.4103)" fill="#61C3F2"/>
<rect width="3.07221" height="2.30227" rx="0.430476" transform="matrix(-1 -1.74846e-07 -1.74846e-07 1 26.1001 61.9546)" fill="#A6A6A6" fill-opacity="0.5"/>
<rect width="2.15055" height="0.460455" rx="0.230228" transform="matrix(-1 -1.74846e-07 -1.74846e-07 1 25.6392 64.4103)" fill="#A6A6A6" fill-opacity="0.5"/>
<rect width="3.07221" height="2.30227" rx="0.430476" transform="matrix(-1 -1.74846e-07 -1.74846e-07 1 37.4102 61.9546)" fill="#A6A6A6" fill-opacity="0.5"/>
<rect width="2.15055" height="0.460455" rx="0.230228" transform="matrix(-1 -1.74846e-07 -1.74846e-07 1 36.9492 64.4103)" fill="#A6A6A6" fill-opacity="0.5"/>
<rect width="3.07221" height="2.30227" rx="0.430476" transform="matrix(-1 -1.74846e-07 -1.74846e-07 1 43.0654 61.9546)" fill="#A6A6A6" fill-opacity="0.5"/>
<rect width="2.15055" height="0.460455" rx="0.230228" transform="matrix(-1 -1.74846e-07 -1.74846e-07 1 42.6045 64.4103)" fill="#A6A6A6" fill-opacity="0.5"/>
<rect width="3.07221" height="2.30227" rx="0.430476" transform="matrix(-1 -1.74846e-07 -1.74846e-07 1 48.7202 61.9546)" fill="#61C3F2"/>
<rect width="2.15055" height="0.460455" rx="0.230228" transform="matrix(-1 -1.74846e-07 -1.74846e-07 1 48.2593 64.4103)" fill="#61C3F2"/>
<rect width="3.07221" height="2.30227" rx="0.430476" transform="matrix(-1 -1.74846e-07 -1.74846e-07 1 54.3755 61.9546)" fill="#61C3F2"/>
<rect width="2.15055" height="0.460455" rx="0.230228" transform="matrix(-1 -1.74846e-07 -1.74846e-07 1 53.9146 64.4103)" fill="#61C3F2"/>
<rect width="3.07221" height="2.30227" rx="0.430476" transform="matrix(-1 -1.74846e-07 -1.74846e-07 1 60.0303 61.9546)" fill="#A6A6A6" fill-opacity="0.5"/>
<rect width="2.15055" height="0.460455" rx="0.230228" transform="matrix(-1 -1.74846e-07 -1.74846e-07 1 59.5698 64.4103)" fill="#A6A6A6" fill-opacity="0.5"/>
<rect width="3.07221" height="2.30227" rx="0.430476" transform="matrix(-1 -1.74846e-07 -1.74846e-07 1 65.6855 61.9546)" fill="#A6A6A6" fill-opacity="0.5"/>
<rect width="2.15055" height="0.460455" rx="0.230228" transform="matrix(-1 -1.74846e-07 -1.74846e-07 1 65.2246 64.4103)" fill="#A6A6A6" fill-opacity="0.5"/>
<rect width="3.07221" height="2.30227" rx="0.430476" transform="matrix(-1 -1.74846e-07 -1.74846e-07 1 71.3408 61.9546)" fill="#61C3F2"/>
<rect width="2.15055" height="0.460455" rx="0.230228" transform="matrix(-1 -1.74846e-07 -1.74846e-07 1 70.8799 64.4103)" fill="#61C3F2"/>
<rect width="3.07221" height="2.30227" rx="0.430476" transform="matrix(-1 -1.74846e-07 -1.74846e-07 1 76.9956 61.9546)" fill="#61C3F2"/>
<rect width="2.15055" height="0.460455" rx="0.230228" transform="matrix(-1 -1.74846e-07 -1.74846e-07 1 76.5347 64.4103)" fill="#61C3F2"/>
<rect width="3.07221" height="2.30227" rx="0.430476" transform="matrix(-1 -1.74846e-07 -1.74846e-07 1 82.6509 61.9546)" fill="#A6A6A6" fill-opacity="0.5"/>
<rect width="2.15055" height="0.460455" rx="0.230228" transform="matrix(-1 -1.74846e-07 -1.74846e-07 1 82.1899 64.4103)" fill="#A6A6A6" fill-opacity="0.5"/>
<rect width="3.07221" height="2.30227" rx="0.430476" transform="matrix(-1 -1.74846e-07 -1.74846e-07 1 88.3057 61.9546)" fill="#A6A6A6" fill-opacity="0.5"/>
<rect width="2.15055" height="0.460455" rx="0.230228" transform="matrix(-1 -1.74846e-07 -1.74846e-07 1 87.8447 64.4103)" fill="#A6A6A6" fill-opacity="0.5"/>
<rect width="3.07221" height="2.30227" rx="0.430476" transform="matrix(-1 -1.74846e-07 -1.74846e-07 1 93.9609 61.9546)" fill="#61C3F2"/>
<rect width="2.15055" height="0.460455" rx="0.230228" transform="matrix(-1 -1.74846e-07 -1.74846e-07 1 93.5 64.4103)" fill="#61C3F2"/>
<rect width="3.07221" height="2.30227" rx="0.430476" transform="matrix(-1 -1.74846e-07 -1.74846e-07 1 99.6162 61.9546)" fill="#61C3F2"/>
<rect width="2.15055" height="0.460455" rx="0.230228" transform="matrix(-1 -1.74846e-07 -1.74846e-07 1 99.1553 64.4103)" fill="#61C3F2"/>
<rect width="3.07221" height="2.30227" rx="0.430476" transform="matrix(-1 -1.74846e-07 -1.74846e-07 1 105.271 61.9546)" fill="#A6A6A6" fill-opacity="0.5"/>
<rect width="2.15055" height="0.460455" rx="0.230228" transform="matrix(-1 -1.74846e-07 -1.74846e-07 1 104.81 64.4103)" fill="#A6A6A6" fill-opacity="0.5"/>
<rect width="3.07221" height="2.30227" rx="0.430476" transform="matrix(-1 -1.74846e-07 -1.74846e-07 1 110.926 61.9546)" fill="#A6A6A6" fill-opacity="0.5"/>
<rect width="2.15055" height="0.460455" rx="0.230228" transform="matrix(-1 -1.74846e-07 -1.74846e-07 1 110.465 64.4103)" fill="#A6A6A6" fill-opacity="0.5"/>
<rect width="3.07221" height="2.30227" rx="0.430476" transform="matrix(-1 -1.74846e-07 -1.74846e-07 1 122.236 61.9546)" fill="#A6A6A6" fill-opacity="0.5"/>
<rect width="2.15055" height="0.460455" rx="0.230228" transform="matrix(-1 -1.74846e-07 -1.74846e-07 1 121.775 64.4103)" fill="#A6A6A6" fill-opacity="0.5"/>
<rect width="3.07221" height="2.30227" rx="0.430476" transform="matrix(-1 -1.74846e-07 -1.74846e-07 1 127.891 61.9546)" fill="#61C3F2"/>
<rect width="2.15055" height="0.460455" rx="0.230228" transform="matrix(-1 -1.74846e-07 -1.74846e-07 1 127.43 64.4103)" fill="#61C3F2"/>
<rect width="3.07221" height="2.30227" rx="0.430476" transform="matrix(-1 -1.74846e-07 -1.74846e-07 1 133.546 61.9546)" fill="#61C3F2"/>
<rect width="2.15055" height="0.460455" rx="0.230228" transform="matrix(-1 -1.74846e-07 -1.74846e-07 1 133.085 64.4103)" fill="#61C3F2"/>
<rect width="3.07221" height="2.30227" rx="0.430476" transform="matrix(-1 -1.74846e-07 -1.74846e-07 1 139.201 61.9546)" fill="#A6A6A6" fill-opacity="0.5"/>
<rect width="2.15055" height="0.460455" rx="0.230228" transform="matrix(-1 -1.74846e-07 -1.74846e-07 1 138.74 64.4103)" fill="#A6A6A6" fill-opacity="0.5"/>
<rect width="3.07221" height="2.30227" rx="0.430476" transform="matrix(-1 -1.74846e-07 -1.74846e-07 1 144.856 61.9546)" fill="#A6A6A6" fill-opacity="0.5"/>
<rect width="2.15055" height="0.460455" rx="0.230228" transform="matrix(-1 -1.74846e-07 -1.74846e-07 1 144.396 64.4103)" fill="#A6A6A6" fill-opacity="0.5"/>
<rect width="3.07221" height="2.30227" rx="0.430476" transform="matrix(-1 -1.74846e-07 -1.74846e-07 1 3.47998 68.7451)" fill="#61C3F2"/>
<rect width="2.15055" height="0.460455" rx="0.230228" transform="matrix(-1 -1.74846e-07 -1.74846e-07 1 3.01904 71.2008)" fill="#61C3F2"/>
<rect width="3.07221" height="2.30227" rx="0.430476" transform="matrix(-1 -1.74846e-07 -1.74846e-07 1 9.13477 68.7451)" fill="#61C3F2"/>
<rect width="2.15055" height="0.460455" rx="0.230228" transform="matrix(-1 -1.74846e-07 -1.74846e-07 1 8.67432 71.2008)" fill="#61C3F2"/>
<rect width="3.07221" height="2.30227" rx="0.430476" transform="matrix(-1 -1.74846e-07 -1.74846e-07 1 14.79 68.7451)" fill="#A6A6A6" fill-opacity="0.5"/>
<rect width="2.15055" height="0.460455" rx="0.230228" transform="matrix(-1 -1.74846e-07 -1.74846e-07 1 14.3291 71.2008)" fill="#A6A6A6" fill-opacity="0.5"/>
<rect width="3.07221" height="2.30227" rx="0.430476" transform="matrix(-1 -1.74846e-07 -1.74846e-07 1 20.4448 68.7451)" fill="#A6A6A6" fill-opacity="0.5"/>
<rect width="2.15055" height="0.460455" rx="0.230228" transform="matrix(-1 -1.74846e-07 -1.74846e-07 1 19.9844 71.2008)" fill="#A6A6A6" fill-opacity="0.5"/>
<rect width="3.07221" height="2.30227" rx="0.430476" transform="matrix(-1 -1.74846e-07 -1.74846e-07 1 26.1001 68.7451)" fill="#A6A6A6" fill-opacity="0.5"/>
<rect width="2.15055" height="0.460455" rx="0.230228" transform="matrix(-1 -1.74846e-07 -1.74846e-07 1 25.6392 71.2008)" fill="#A6A6A6" fill-opacity="0.5"/>
<rect width="3.07221" height="2.30227" rx="0.430476" transform="matrix(-1 -1.74846e-07 -1.74846e-07 1 37.4102 68.7451)" fill="#61C3F2"/>
<rect width="2.15055" height="0.460455" rx="0.230228" transform="matrix(-1 -1.74846e-07 -1.74846e-07 1 36.9492 71.2008)" fill="#61C3F2"/>
<rect width="3.07221" height="2.30227" rx="0.430476" transform="matrix(-1 -1.74846e-07 -1.74846e-07 1 43.0654 68.7451)" fill="#61C3F2"/>
<rect width="2.15055" height="0.460455" rx="0.230228" transform="matrix(-1 -1.74846e-07 -1.74846e-07 1 42.6045 71.2008)" fill="#61C3F2"/>
<rect width="3.07221" height="2.30227" rx="0.430476" transform="matrix(-1 -1.74846e-07 -1.74846e-07 1 48.7202 68.7451)" fill="#A6A6A6" fill-opacity="0.5"/>
<rect width="2.15055" height="0.460455" rx="0.230228" transform="matrix(-1 -1.74846e-07 -1.74846e-07 1 48.2593 71.2008)" fill="#A6A6A6" fill-opacity="0.5"/>
<rect width="3.07221" height="2.30227" rx="0.430476" transform="matrix(-1 -1.74846e-07 -1.74846e-07 1 54.3755 68.7451)" fill="#A6A6A6" fill-opacity="0.5"/>
<rect width="2.15055" height="0.460455" rx="0.230228" transform="matrix(-1 -1.74846e-07 -1.74846e-07 1 53.9146 71.2008)" fill="#A6A6A6" fill-opacity="0.5"/>
<rect width="3.07221" height="2.30227" rx="0.430476" transform="matrix(-1 -1.74846e-07 -1.74846e-07 1 60.0303 68.7451)" fill="#61C3F2"/>
<rect width="2.15055" height="0.460455" rx="0.230228" transform="matrix(-1 -1.74846e-07 -1.74846e-07 1 59.5698 71.2008)" fill="#61C3F2"/>
<rect width="3.07221" height="2.30227" rx="0.430476" transform="matrix(-1 -1.74846e-07 -1.74846e-07 1 65.6855 68.7451)" fill="#61C3F2"/>
<rect width="2.15055" height="0.460455" rx="0.230228" transform="matrix(-1 -1.74846e-07 -1.74846e-07 1 65.2246 71.2008)" fill="#61C3F2"/>
<rect width="3.07221" height="2.30227" rx="0.430476" transform="matrix(-1 -1.74846e-07 -1.74846e-07 1 71.3408 68.7451)" fill="#A6A6A6" fill-opacity="0.5"/>
<rect width="2.15055" height="0.460455" rx="0.230228" transform="matrix(-1 -1.74846e-07 -1.74846e-07 1 70.8799 71.2008)" fill="#A6A6A6" fill-opacity="0.5"/>
<rect width="3.07221" height="2.30227" rx="0.430476" transform="matrix(-1 -1.74846e-07 -1.74846e-07 1 76.9956 68.7451)" fill="#A6A6A6" fill-opacity="0.5"/>
<rect width="2.15055" height="0.460455" rx="0.230228" transform="matrix(-1 -1.74846e-07 -1.74846e-07 1 76.5347 71.2008)" fill="#A6A6A6" fill-opacity="0.5"/>
<rect width="3.07221" height="2.30227" rx="0.430476" transform="matrix(-1 -1.74846e-07 -1.74846e-07 1 82.6509 68.7451)" fill="#61C3F2"/>
<rect width="2.15055" height="0.460455" rx="0.230228" transform="matrix(-1 -1.74846e-07 -1.74846e-07 1 82.1899 71.2008)" fill="#61C3F2"/>
<rect width="3.07221" height="2.30227" rx="0.430476" transform="matrix(-1 -1.74846e-07 -1.74846e-07 1 88.3057 68.7451)" fill="#61C3F2"/>
<rect width="2.15055" height="0.460455" rx="0.230228" transform="matrix(-1 -1.74846e-07 -1.74846e-07 1 87.8447 71.2008)" fill="#61C3F2"/>
<rect width="3.07221" height="2.30227" rx="0.430476" transform="matrix(-1 -1.74846e-07 -1.74846e-07 1 93.9609 68.7451)" fill="#A6A6A6" fill-opacity="0.5"/>
<rect width="2.15055" height="0.460455" rx="0.230228" transform="matrix(-1 -1.74846e-07 -1.74846e-07 1 93.5 71.2008)" fill="#A6A6A6" fill-opacity="0.5"/>
<rect width="3.07221" height="2.30227" rx="0.430476" transform="matrix(-1 -1.74846e-07 -1.74846e-07 1 99.6162 68.7451)" fill="#A6A6A6" fill-opacity="0.5"/>
<rect width="2.15055" height="0.460455" rx="0.230228" transform="matrix(-1 -1.74846e-07 -1.74846e-07 1 99.1553 71.2008)" fill="#A6A6A6" fill-opacity="0.5"/>
<rect width="3.07221" height="2.30227" rx="0.430476" transform="matrix(-1 -1.74846e-07 -1.74846e-07 1 105.271 68.7451)" fill="#61C3F2"/>
<rect width="2.15055" height="0.460455" rx="0.230228" transform="matrix(-1 -1.74846e-07 -1.74846e-07 1 104.81 71.2008)" fill="#61C3F2"/>
<rect width="3.07221" height="2.30227" rx="0.430476" transform="matrix(-1 -1.74846e-07 -1.74846e-07 1 110.926 68.7451)" fill="#61C3F2"/>
<rect width="2.15055" height="0.460455" rx="0.230228" transform="matrix(-1 -1.74846e-07 -1.74846e-07 1 110.465 71.2008)" fill="#61C3F2"/>
<rect width="3.07221" height="2.30227" rx="0.430476" transform="matrix(-1 -1.74846e-07 -1.74846e-07 1 122.236 68.7451)" fill="#A6A6A6" fill-opacity="0.5"/>
<rect width="2.15055" height="0.460455" rx="0.230228" transform="matrix(-1 -1.74846e-07 -1.74846e-07 1 121.775 71.2008)" fill="#A6A6A6" fill-opacity="0.5"/>
<rect width="3.07221" height="2.30227" rx="0.430476" transform="matrix(-1 -1.74846e-07 -1.74846e-07 1 127.891 68.7451)" fill="#A6A6A6" fill-opacity="0.5"/>
<rect width="2.15055" height="0.460455" rx="0.230228" transform="matrix(-1 -1.74846e-07 -1.74846e-07 1 127.43 71.2008)" fill="#A6A6A6" fill-opacity="0.5"/>
<rect width="3.07221" height="2.30227" rx="0.430476" transform="matrix(-1 -1.74846e-07 -1.74846e-07 1 133.546 68.7451)" fill="#A6A6A6" fill-opacity="0.5"/>
<rect width="2.15055" height="0.460455" rx="0.230228" transform="matrix(-1 -1.74846e-07 -1.74846e-07 1 133.085 71.2008)" fill="#A6A6A6" fill-opacity="0.5"/>
<rect width="3.07221" height="2.30227" rx="0.430476" transform="matrix(-1 -1.74846e-07 -1.74846e-07 1 139.201 68.7451)" fill="#61C3F2"/>
<rect width="2.15055" height="0.460455" rx="0.230228" transform="matrix(-1 -1.74846e-07 -1.74846e-07 1 138.74 71.2008)" fill="#61C3F2"/>
<rect width="3.07221" height="2.30227" rx="0.430476" transform="matrix(-1 -1.74846e-07 -1.74846e-07 1 144.856 68.7451)" fill="#61C3F2"/>
<rect width="2.15055" height="0.460455" rx="0.230228" transform="matrix(-1 -1.74846e-07 -1.74846e-07 1 144.396 71.2008)" fill="#61C3F2"/>
<rect width="3.07221" height="2.30227" rx="0.430476" transform="matrix(-1 -1.74846e-07 -1.74846e-07 1 3.47998 75.5356)" fill="#A6A6A6" fill-opacity="0.5"/>
<rect width="2.15055" height="0.460455" rx="0.230228" transform="matrix(-1 -1.74846e-07 -1.74846e-07 1 3.01904 77.9913)" fill="#A6A6A6" fill-opacity="0.5"/>
<rect width="3.07221" height="2.30227" rx="0.430476" transform="matrix(-1 -1.74846e-07 -1.74846e-07 1 9.13477 75.5356)" fill="#A6A6A6" fill-opacity="0.5"/>
<rect width="2.15055" height="0.460455" rx="0.230228" transform="matrix(-1 -1.74846e-07 -1.74846e-07 1 8.67432 77.9913)" fill="#A6A6A6" fill-opacity="0.5"/>
<rect width="3.07221" height="2.30227" rx="0.430476" transform="matrix(-1 -1.74846e-07 -1.74846e-07 1 14.79 75.5356)" fill="#61C3F2"/>
<rect width="2.15055" height="0.460455" rx="0.230228" transform="matrix(-1 -1.74846e-07 -1.74846e-07 1 14.3291 77.9913)" fill="#61C3F2"/>
<rect width="3.07221" height="2.30227" rx="0.430476" transform="matrix(-1 -1.74846e-07 -1.74846e-07 1 20.4448 75.5356)" fill="#61C3F2"/>
<rect width="2.15055" height="0.460455" rx="0.230228" transform="matrix(-1 -1.74846e-07 -1.74846e-07 1 19.9844 77.9913)" fill="#61C3F2"/>
<rect width="3.07221" height="2.30227" rx="0.430476" transform="matrix(-1 -1.74846e-07 -1.74846e-07 1 26.1001 75.5356)" fill="#A6A6A6" fill-opacity="0.5"/>
<rect width="2.15055" height="0.460455" rx="0.230228" transform="matrix(-1 -1.74846e-07 -1.74846e-07 1 25.6392 77.9913)" fill="#A6A6A6" fill-opacity="0.5"/>
<rect width="3.07221" height="2.30227" rx="0.430476" transform="matrix(-1 -1.74846e-07 -1.74846e-07 1 37.4102 75.5356)" fill="#A6A6A6" fill-opacity="0.5"/>
<rect width="2.15055" height="0.460455" rx="0.230228" transform="matrix(-1 -1.74846e-07 -1.74846e-07 1 36.9492 77.9913)" fill="#A6A6A6" fill-opacity="0.5"/>
<rect width="3.07221" height="2.30227" rx="0.430476" transform="matrix(-1 -1.74846e-07 -1.74846e-07 1 43.0654 75.5356)" fill="#A6A6A6" fill-opacity="0.5"/>
<rect width="2.15055" height="0.460455" rx="0.230228" transform="matrix(-1 -1.74846e-07 -1.74846e-07 1 42.6045 77.9913)" fill="#A6A6A6" fill-opacity="0.5"/>
<rect width="3.07221" height="2.30227" rx="0.430476" transform="matrix(-1 -1.74846e-07 -1.74846e-07 1 48.7202 75.5356)" fill="#61C3F2"/>
<rect width="2.15055" height="0.460455" rx="0.230228" transform="matrix(-1 -1.74846e-07 -1.74846e-07 1 48.2593 77.9913)" fill="#61C3F2"/>
<rect width="3.07221" height="2.30227" rx="0.430476" transform="matrix(-1 -1.74846e-07 -1.74846e-07 1 54.3755 75.5356)" fill="#61C3F2"/>
<rect width="2.15055" height="0.460455" rx="0.230228" transform="matrix(-1 -1.74846e-07 -1.74846e-07 1 53.9146 77.9913)" fill="#61C3F2"/>
<rect width="3.07221" height="2.30227" rx="0.430476" transform="matrix(-1 -1.74846e-07 -1.74846e-07 1 60.0303 75.5356)" fill="#A6A6A6" fill-opacity="0.5"/>
<rect width="2.15055" height="0.460455" rx="0.230228" transform="matrix(-1 -1.74846e-07 -1.74846e-07 1 59.5698 77.9913)" fill="#A6A6A6" fill-opacity="0.5"/>
<rect width="3.07221" height="2.30227" rx="0.430476" transform="matrix(-1 -1.74846e-07 -1.74846e-07 1 65.6855 75.5356)" fill="#A6A6A6" fill-opacity="0.5"/>
<rect width="2.15055" height="0.460455" rx="0.230228" transform="matrix(-1 -1.74846e-07 -1.74846e-07 1 65.2246 77.9913)" fill="#A6A6A6" fill-opacity="0.5"/>
<rect width="3.07221" height="2.30227" rx="0.430476" transform="matrix(-1 -1.74846e-07 -1.74846e-07 1 71.3408 75.5356)" fill="#61C3F2"/>
<rect width="2.15055" height="0.460455" rx="0.230228" transform="matrix(-1 -1.74846e-07 -1.74846e-07 1 70.8799 77.9913)" fill="#61C3F2"/>
<rect width="3.07221" height="2.30227" rx="0.430476" transform="matrix(-1 -1.74846e-07 -1.74846e-07 1 76.9956 75.5356)" fill="#61C3F2"/>
<rect width="2.15055" height="0.460455" rx="0.230228" transform="matrix(-1 -1.74846e-07 -1.74846e-07 1 76.5347 77.9913)" fill="#61C3F2"/>
<rect width="3.07221" height="2.30227" rx="0.430476" transform="matrix(-1 -1.74846e-07 -1.74846e-07 1 82.6509 75.5356)" fill="#A6A6A6" fill-opacity="0.5"/>
<rect width="2.15055" height="0.460455" rx="0.230228" transform="matrix(-1 -1.74846e-07 -1.74846e-07 1 82.1899 77.9913)" fill="#A6A6A6" fill-opacity="0.5"/>
<rect width="3.07221" height="2.30227" rx="0.430476" transform="matrix(-1 -1.74846e-07 -1.74846e-07 1 88.3057 75.5356)" fill="#A6A6A6" fill-opacity="0.5"/>
<rect width="2.15055" height="0.460455" rx="0.230228" transform="matrix(-1 -1.74846e-07 -1.74846e-07 1 87.8447 77.9913)" fill="#A6A6A6" fill-opacity="0.5"/>
<rect width="3.07221" height="2.30227" rx="0.430476" transform="matrix(-1 -1.74846e-07 -1.74846e-07 1 93.9609 75.5356)" fill="#61C3F2"/>
<rect width="2.15055" height="0.460455" rx="0.230228" transform="matrix(-1 -1.74846e-07 -1.74846e-07 1 93.5 77.9913)" fill="#61C3F2"/>
<rect width="3.07221" height="2.30227" rx="0.430476" transform="matrix(-1 -1.74846e-07 -1.74846e-07 1 99.6162 75.5356)" fill="#61C3F2"/>
<rect width="2.15055" height="0.460455" rx="0.230228" transform="matrix(-1 -1.74846e-07 -1.74846e-07 1 99.1553 77.9913)" fill="#61C3F2"/>
<rect width="3.07221" height="2.30227" rx="0.430476" transform="matrix(-1 -1.74846e-07 -1.74846e-07 1 105.271 75.5356)" fill="#A6A6A6" fill-opacity="0.5"/>
<rect width="2.15055" height="0.460455" rx="0.230228" transform="matrix(-1 -1.74846e-07 -1.74846e-07 1 104.81 77.9913)" fill="#A6A6A6" fill-opacity="0.5"/>
<rect width="3.07221" height="2.30227" rx="0.430476" transform="matrix(-1 -1.74846e-07 -1.74846e-07 1 110.926 75.5356)" fill="#A6A6A6" fill-opacity="0.5"/>
<rect width="2.15055" height="0.460455" rx="0.230228" transform="matrix(-1 -1.74846e-07 -1.74846e-07 1 110.465 77.9913)" fill="#A6A6A6" fill-opacity="0.5"/>
<rect width="3.07221" height="2.30227" rx="0.430476" transform="matrix(-1 -1.74846e-07 -1.74846e-07 1 122.236 75.5356)" fill="#A6A6A6" fill-opacity="0.5"/>
<rect width="2.15055" height="0.460455" rx="0.230228" transform="matrix(-1 -1.74846e-07 -1.74846e-07 1 121.775 77.9913)" fill="#A6A6A6" fill-opacity="0.5"/>
<rect width="3.07221" height="2.30227" rx="0.430476" transform="matrix(-1 -1.74846e-07 -1.74846e-07 1 127.891 75.5356)" fill="#61C3F2"/>
<rect width="2.15055" height="0.460455" rx="0.230228" transform="matrix(-1 -1.74846e-07 -1.74846e-07 1 127.43 77.9913)" fill="#61C3F2"/>
<rect width="3.07221" height="2.30227" rx="0.430476" transform="matrix(-1 -1.74846e-07 -1.74846e-07 1 133.546 75.5356)" fill="#61C3F2"/>
<rect width="2.15055" height="0.460455" rx="0.230228" transform="matrix(-1 -1.74846e-07 -1.74846e-07 1 133.085 77.9913)" fill="#61C3F2"/>
<rect width="3.07221" height="2.30227" rx="0.430476" transform="matrix(-1 -1.74846e-07 -1.74846e-07 1 139.201 75.5356)" fill="#A6A6A6" fill-opacity="0.5"/>
<rect width="2.15055" height="0.460455" rx="0.230228" transform="matrix(-1 -1.74846e-07 -1.74846e-07 1 138.74 77.9913)" fill="#A6A6A6" fill-opacity="0.5"/>
<rect width="3.07221" height="2.30227" rx="0.430476" transform="matrix(-1 -1.74846e-07 -1.74846e-07 1 144.856 75.5356)" fill="#A6A6A6" fill-opacity="0.5"/>
<rect width="2.15055" height="0.460455" rx="0.230228" transform="matrix(-1 -1.74846e-07 -1.74846e-07 1 144.396 77.9913)" fill="#A6A6A6" fill-opacity="0.5"/>
<rect width="3.07221" height="2.30227" rx="0.430476" transform="matrix(-1 -1.74846e-07 -1.74846e-07 1 3.47998 82.3261)" fill="#61C3F2"/>
<rect width="2.15055" height="0.460455" rx="0.230228" transform="matrix(-1 -1.74846e-07 -1.74846e-07 1 3.01904 84.7818)" fill="#61C3F2"/>
<rect width="3.07221" height="2.30227" rx="0.430476" transform="matrix(-1 -1.74846e-07 -1.74846e-07 1 9.13477 82.3261)" fill="#61C3F2"/>
<rect width="2.15055" height="0.460455" rx="0.230228" transform="matrix(-1 -1.74846e-07 -1.74846e-07 1 8.67432 84.7818)" fill="#61C3F2"/>
<rect width="3.07221" height="2.30227" rx="0.430476" transform="matrix(-1 -1.74846e-07 -1.74846e-07 1 14.79 82.3261)" fill="#A6A6A6" fill-opacity="0.5"/>
<rect width="2.15055" height="0.460455" rx="0.230228" transform="matrix(-1 -1.74846e-07 -1.74846e-07 1 14.3291 84.7818)" fill="#A6A6A6" fill-opacity="0.5"/>
<rect width="3.07221" height="2.30227" rx="0.430476" transform="matrix(-1 -1.74846e-07 -1.74846e-07 1 20.4448 82.3261)" fill="#A6A6A6" fill-opacity="0.5"/>
<rect width="2.15055" height="0.460455" rx="0.230228" transform="matrix(-1 -1.74846e-07 -1.74846e-07 1 19.9844 84.7818)" fill="#A6A6A6" fill-opacity="0.5"/>
<rect width="3.07221" height="2.30227" rx="0.430476" transform="matrix(-1 -1.74846e-07 -1.74846e-07 1 26.1001 82.3261)" fill="#A6A6A6" fill-opacity="0.5"/>
<rect width="2.15055" height="0.460455" rx="0.230228" transform="matrix(-1 -1.74846e-07 -1.74846e-07 1 25.6392 84.7818)" fill="#A6A6A6" fill-opacity="0.5"/>
<rect width="3.07221" height="2.30227" rx="0.430476" transform="matrix(-1 -1.74846e-07 -1.74846e-07 1 37.4102 82.3261)" fill="#61C3F2"/>
<rect width="2.15055" height="0.460455" rx="0.230228" transform="matrix(-1 -1.74846e-07 -1.74846e-07 1 36.9492 84.7818)" fill="#61C3F2"/>
<rect width="3.07221" height="2.30227" rx="0.430476" transform="matrix(-1 -1.74846e-07 -1.74846e-07 1 43.0654 82.3261)" fill="#61C3F2"/>
<rect width="2.15055" height="0.460455" rx="0.230228" transform="matrix(-1 -1.74846e-07 -1.74846e-07 1 42.6045 84.7818)" fill="#61C3F2"/>
<rect width="3.07221" height="2.30227" rx="0.430476" transform="matrix(-1 -1.74846e-07 -1.74846e-07 1 48.7202 82.3261)" fill="#A6A6A6" fill-opacity="0.5"/>
<rect width="2.15055" height="0.460455" rx="0.230228" transform="matrix(-1 -1.74846e-07 -1.74846e-07 1 48.2593 84.7818)" fill="#A6A6A6" fill-opacity="0.5"/>
<rect width="3.07221" height="2.30227" rx="0.430476" transform="matrix(-1 -1.74846e-07 -1.74846e-07 1 54.3755 82.3261)" fill="#A6A6A6" fill-opacity="0.5"/>
<rect width="2.15055" height="0.460455" rx="0.230228" transform="matrix(-1 -1.74846e-07 -1.74846e-07 1 53.9146 84.7818)" fill="#A6A6A6" fill-opacity="0.5"/>
<rect width="3.07221" height="2.30227" rx="0.430476" transform="matrix(-1 -1.74846e-07 -1.74846e-07 1 60.0303 82.3261)" fill="#61C3F2"/>
<rect width="2.15055" height="0.460455" rx="0.230228" transform="matrix(-1 -1.74846e-07 -1.74846e-07 1 59.5698 84.7818)" fill="#61C3F2"/>
<rect width="3.07221" height="2.30227" rx="0.430476" transform="matrix(-1 -1.74846e-07 -1.74846e-07 1 65.6855 82.3261)" fill="#61C3F2"/>
<rect width="2.15055" height="0.460455" rx="0.230228" transform="matrix(-1 -1.74846e-07 -1.74846e-07 1 65.2246 84.7818)" fill="#61C3F2"/>
<rect width="3.07221" height="2.30227" rx="0.430476" transform="matrix(-1 -1.74846e-07 -1.74846e-07 1 71.3408 82.3261)" fill="#A6A6A6" fill-opacity="0.5"/>
<rect width="2.15055" height="0.460455" rx="0.230228" transform="matrix(-1 -1.74846e-07 -1.74846e-07 1 70.8799 84.7818)" fill="#A6A6A6" fill-opacity="0.5"/>
<rect width="3.07221" height="2.30227" rx="0.430476" transform="matrix(-1 -1.74846e-07 -1.74846e-07 1 76.9956 82.3261)" fill="#A6A6A6" fill-opacity="0.5"/>
<rect width="2.15055" height="0.460455" rx="0.230228" transform="matrix(-1 -1.74846e-07 -1.74846e-07 1 76.5347 84.7818)" fill="#A6A6A6" fill-opacity="0.5"/>
<rect width="3.07221" height="2.30227" rx="0.430476" transform="matrix(-1 -1.74846e-07 -1.74846e-07 1 82.6509 82.3261)" fill="#61C3F2"/>
<rect width="2.15055" height="0.460455" rx="0.230228" transform="matrix(-1 -1.74846e-07 -1.74846e-07 1 82.1899 84.7818)" fill="#61C3F2"/>
<rect width="3.07221" height="2.30227" rx="0.430476" transform="matrix(-1 -1.74846e-07 -1.74846e-07 1 88.3057 82.3261)" fill="#61C3F2"/>
<rect width="2.15055" height="0.460455" rx="0.230228" transform="matrix(-1 -1.74846e-07 -1.74846e-07 1 87.8447 84.7818)" fill="#61C3F2"/>
<rect width="3.07221" height="2.30227" rx="0.430476" transform="matrix(-1 -1.74846e-07 -1.74846e-07 1 93.9609 82.3261)" fill="#A6A6A6" fill-opacity="0.5"/>
<rect width="2.15055" height="0.460455" rx="0.230228" transform="matrix(-1 -1.74846e-07 -1.74846e-07 1 93.5 84.7818)" fill="#A6A6A6" fill-opacity="0.5"/>
<rect width="3.07221" height="2.30227" rx="0.430476" transform="matrix(-1 -1.74846e-07 -1.74846e-07 1 99.6162 82.3261)" fill="#A6A6A6" fill-opacity="0.5"/>
<rect width="2.15055" height="0.460455" rx="0.230228" transform="matrix(-1 -1.74846e-07 -1.74846e-07 1 99.1553 84.7818)" fill="#A6A6A6" fill-opacity="0.5"/>
<rect width="3.07221" height="2.30227" rx="0.430476" transform="matrix(-1 -1.74846e-07 -1.74846e-07 1 105.271 82.3261)" fill="#61C3F2"/>
<rect width="2.15055" height="0.460455" rx="0.230228" transform="matrix(-1 -1.74846e-07 -1.74846e-07 1 104.81 84.7818)" fill="#61C3F2"/>
<rect width="3.07221" height="2.30227" rx="0.430476" transform="matrix(-1 -1.74846e-07 -1.74846e-07 1 110.926 82.3261)" fill="#61C3F2"/>
<rect width="2.15055" height="0.460455" rx="0.230228" transform="matrix(-1 -1.74846e-07 -1.74846e-07 1 110.465 84.7818)" fill="#61C3F2"/>
<rect width="3.07221" height="2.30227" rx="0.430476" transform="matrix(-1 -1.74846e-07 -1.74846e-07 1 122.236 82.3261)" fill="#A6A6A6" fill-opacity="0.5"/>
<rect width="2.15055" height="0.460455" rx="0.230228" transform="matrix(-1 -1.74846e-07 -1.74846e-07 1 121.775 84.7818)" fill="#A6A6A6" fill-opacity="0.5"/>
<rect width="3.07221" height="2.30227" rx="0.430476" transform="matrix(-1 -1.74846e-07 -1.74846e-07 1 127.891 82.3261)" fill="#A6A6A6" fill-opacity="0.5"/>
<rect width="2.15055" height="0.460455" rx="0.230228" transform="matrix(-1 -1.74846e-07 -1.74846e-07 1 127.43 84.7818)" fill="#A6A6A6" fill-opacity="0.5"/>
<rect width="3.07221" height="2.30227" rx="0.430476" transform="matrix(-1 -1.74846e-07 -1.74846e-07 1 133.546 82.3261)" fill="#A6A6A6" fill-opacity="0.5"/>
<rect width="2.15055" height="0.460455" rx="0.230228" transform="matrix(-1 -1.74846e-07 -1.74846e-07 1 133.085 84.7818)" fill="#A6A6A6" fill-opacity="0.5"/>
<rect width="3.07221" height="2.30227" rx="0.430476" transform="matrix(-1 -1.74846e-07 -1.74846e-07 1 139.201 82.3261)" fill="#61C3F2"/>
<rect width="2.15055" height="0.460455" rx="0.230228" transform="matrix(-1 -1.74846e-07 -1.74846e-07 1 138.74 84.7818)" fill="#61C3F2"/>
<rect width="3.07221" height="2.30227" rx="0.430476" transform="matrix(-1 -1.74846e-07 -1.74846e-07 1 144.856 82.3261)" fill="#61C3F2"/>
<rect width="2.15055" height="0.460455" rx="0.230228" transform="matrix(-1 -1.74846e-07 -1.74846e-07 1 144.396 84.7818)" fill="#61C3F2"/>
<rect width="3.07221" height="2.30227" rx="0.430476" transform="matrix(-1 -1.74846e-07 -1.74846e-07 1 3.47998 89.1166)" fill="#A6A6A6" fill-opacity="0.5"/>
<rect width="2.15055" height="0.460455" rx="0.230228" transform="matrix(-1 -1.74846e-07 -1.74846e-07 1 3.01904 91.5723)" fill="#A6A6A6" fill-opacity="0.5"/>
<rect width="3.07221" height="2.30227" rx="0.430476" transform="matrix(-1 -1.74846e-07 -1.74846e-07 1 9.13477 89.1166)" fill="#A6A6A6" fill-opacity="0.5"/>
<rect width="2.15055" height="0.460455" rx="0.230228" transform="matrix(-1 -1.74846e-07 -1.74846e-07 1 8.67432 91.5723)" fill="#A6A6A6" fill-opacity="0.5"/>
<rect width="3.07221" height="2.30227" rx="0.430476" transform="matrix(-1 -1.74846e-07 -1.74846e-07 1 14.79 89.1166)" fill="#61C3F2"/>
<rect width="2.15055" height="0.460455" rx="0.230228" transform="matrix(-1 -1.74846e-07 -1.74846e-07 1 14.3291 91.5723)" fill="#61C3F2"/>
<rect width="3.07221" height="2.30227" rx="0.430476" transform="matrix(-1 -1.74846e-07 -1.74846e-07 1 20.4448 89.1166)" fill="#61C3F2"/>
<rect width="2.15055" height="0.460455" rx="0.230228" transform="matrix(-1 -1.74846e-07 -1.74846e-07 1 19.9844 91.5723)" fill="#61C3F2"/>
<rect width="3.07221" height="2.30227" rx="0.430476" transform="matrix(-1 -1.74846e-07 -1.74846e-07 1 26.1001 89.1166)" fill="#A6A6A6" fill-opacity="0.5"/>
<rect width="2.15055" height="0.460455" rx="0.230228" transform="matrix(-1 -1.74846e-07 -1.74846e-07 1 25.6392 91.5723)" fill="#A6A6A6" fill-opacity="0.5"/>
<rect width="3.07221" height="2.30227" rx="0.430476" transform="matrix(-1 -1.74846e-07 -1.74846e-07 1 37.4102 89.1166)" fill="#A6A6A6" fill-opacity="0.5"/>
<rect width="2.15055" height="0.460455" rx="0.230228" transform="matrix(-1 -1.74846e-07 -1.74846e-07 1 36.9492 91.5723)" fill="#A6A6A6" fill-opacity="0.5"/>
<rect width="3.07221" height="2.30227" rx="0.430476" transform="matrix(-1 -1.74846e-07 -1.74846e-07 1 43.0654 89.1166)" fill="#A6A6A6" fill-opacity="0.5"/>
<rect width="2.15055" height="0.460455" rx="0.230228" transform="matrix(-1 -1.74846e-07 -1.74846e-07 1 42.6045 91.5723)" fill="#A6A6A6" fill-opacity="0.5"/>
<rect width="3.07221" height="2.30227" rx="0.430476" transform="matrix(-1 -1.74846e-07 -1.74846e-07 1 48.7202 89.1166)" fill="#61C3F2"/>
<rect width="2.15055" height="0.460455" rx="0.230228" transform="matrix(-1 -1.74846e-07 -1.74846e-07 1 48.2593 91.5723)" fill="#61C3F2"/>
<rect width="3.07221" height="2.30227" rx="0.430476" transform="matrix(-1 -1.74846e-07 -1.74846e-07 1 54.3755 89.1166)" fill="#61C3F2"/>
<rect width="2.15055" height="0.460455" rx="0.230228" transform="matrix(-1 -1.74846e-07 -1.74846e-07 1 53.9146 91.5723)" fill="#61C3F2"/>
<rect width="3.07221" height="2.30227" rx="0.430476" transform="matrix(-1 -1.74846e-07 -1.74846e-07 1 60.0303 89.1166)" fill="#A6A6A6" fill-opacity="0.5"/>
<rect width="2.15055" height="0.460455" rx="0.230228" transform="matrix(-1 -1.74846e-07 -1.74846e-07 1 59.5698 91.5723)" fill="#A6A6A6" fill-opacity="0.5"/>
<rect width="3.07221" height="2.30227" rx="0.430476" transform="matrix(-1 -1.74846e-07 -1.74846e-07 1 65.6855 89.1166)" fill="#A6A6A6" fill-opacity="0.5"/>
<rect width="2.15055" height="0.460455" rx="0.230228" transform="matrix(-1 -1.74846e-07 -1.74846e-07 1 65.2246 91.5723)" fill="#A6A6A6" fill-opacity="0.5"/>
<rect width="3.07221" height="2.30227" rx="0.430476" transform="matrix(-1 -1.74846e-07 -1.74846e-07 1 71.3408 89.1166)" fill="#61C3F2"/>
<rect width="2.15055" height="0.460455" rx="0.230228" transform="matrix(-1 -1.74846e-07 -1.74846e-07 1 70.8799 91.5723)" fill="#61C3F2"/>
<rect width="3.07221" height="2.30227" rx="0.430476" transform="matrix(-1 -1.74846e-07 -1.74846e-07 1 76.9956 89.1166)" fill="#61C3F2"/>
<rect width="2.15055" height="0.460455" rx="0.230228" transform="matrix(-1 -1.74846e-07 -1.74846e-07 1 76.5347 91.5723)" fill="#61C3F2"/>
<rect width="3.07221" height="2.30227" rx="0.430476" transform="matrix(-1 -1.74846e-07 -1.74846e-07 1 82.6509 89.1166)" fill="#A6A6A6" fill-opacity="0.5"/>
<rect width="2.15055" height="0.460455" rx="0.230228" transform="matrix(-1 -1.74846e-07 -1.74846e-07 1 82.1899 91.5723)" fill="#A6A6A6" fill-opacity="0.5"/>
<rect width="3.07221" height="2.30227" rx="0.430476" transform="matrix(-1 -1.74846e-07 -1.74846e-07 1 88.3057 89.1166)" fill="#A6A6A6" fill-opacity="0.5"/>
<rect width="2.15055" height="0.460455" rx="0.230228" transform="matrix(-1 -1.74846e-07 -1.74846e-07 1 87.8447 91.5723)" fill="#A6A6A6" fill-opacity="0.5"/>
<rect width="3.07221" height="2.30227" rx="0.430476" transform="matrix(-1 -1.74846e-07 -1.74846e-07 1 93.9609 89.1166)" fill="#61C3F2"/>
<rect width="2.15055" height="0.460455" rx="0.230228" transform="matrix(-1 -1.74846e-07 -1.74846e-07 1 93.5 91.5723)" fill="#61C3F2"/>
<rect width="3.07221" height="2.30227" rx="0.430476" transform="matrix(-1 -1.74846e-07 -1.74846e-07 1 99.6162 89.1166)" fill="#61C3F2"/>
<rect width="2.15055" height="0.460455" rx="0.230228" transform="matrix(-1 -1.74846e-07 -1.74846e-07 1 99.1553 91.5723)" fill="#61C3F2"/>
<rect width="3.07221" height="2.30227" rx="0.430476" transform="matrix(-1 -1.74846e-07 -1.74846e-07 1 105.271 89.1166)" fill="#A6A6A6" fill-opacity="0.5"/>
<rect width="2.15055" height="0.460455" rx="0.230228" transform="matrix(-1 -1.74846e-07 -1.74846e-07 1 104.81 91.5723)" fill="#A6A6A6" fill-opacity="0.5"/>
<rect width="3.07221" height="2.30227" rx="0.430476" transform="matrix(-1 -1.74846e-07 -1.74846e-07 1 110.926 89.1166)" fill="#A6A6A6" fill-opacity="0.5"/>
<rect width="2.15055" height="0.460455" rx="0.230228" transform="matrix(-1 -1.74846e-07 -1.74846e-07 1 110.465 91.5724)" fill="#A6A6A6" fill-opacity="0.5"/>
<rect width="3.07221" height="2.30227" rx="0.430476" transform="matrix(-1 -1.74846e-07 -1.74846e-07 1 122.236 89.1166)" fill="#A6A6A6" fill-opacity="0.5"/>
<rect width="2.15055" height="0.460455" rx="0.230228" transform="matrix(-1 -1.74846e-07 -1.74846e-07 1 121.775 91.5724)" fill="#A6A6A6" fill-opacity="0.5"/>
<rect width="3.07221" height="2.30227" rx="0.430476" transform="matrix(-1 -1.74846e-07 -1.74846e-07 1 127.891 89.1166)" fill="#61C3F2"/>
<rect width="2.15055" height="0.460455" rx="0.230228" transform="matrix(-1 -1.74846e-07 -1.74846e-07 1 127.43 91.5724)" fill="#61C3F2"/>
<rect width="3.07221" height="2.30227" rx="0.430476" transform="matrix(-1 -1.74846e-07 -1.74846e-07 1 133.546 89.1166)" fill="#61C3F2"/>
<rect width="2.15055" height="0.460455" rx="0.230228" transform="matrix(-1 -1.74846e-07 -1.74846e-07 1 133.085 91.5724)" fill="#61C3F2"/>
<rect width="3.07221" height="2.30227" rx="0.430476" transform="matrix(-1 -1.74846e-07 -1.74846e-07 1 139.201 89.1166)" fill="#A6A6A6" fill-opacity="0.5"/>
<rect width="2.15055" height="0.460455" rx="0.230228" transform="matrix(-1 -1.74846e-07 -1.74846e-07 1 138.74 91.5724)" fill="#A6A6A6" fill-opacity="0.5"/>
<rect width="3.07221" height="2.30227" rx="0.430476" transform="matrix(-1 -1.74846e-07 -1.74846e-07 1 144.856 89.1166)" fill="#A6A6A6" fill-opacity="0.5"/>
<rect width="2.15055" height="0.460455" rx="0.230228" transform="matrix(-1 -1.74846e-07 -1.74846e-07 1 144.396 91.5724)" fill="#A6A6A6" fill-opacity="0.5"/>
<rect width="3.07221" height="2.30227" rx="0.430476" transform="matrix(-1 -1.74846e-07 -1.74846e-07 1 3.47998 95.9071)" fill="#61C3F2"/>
<rect width="2.15055" height="0.460455" rx="0.230228" transform="matrix(-1 -1.74846e-07 -1.74846e-07 1 3.01904 98.3629)" fill="#61C3F2"/>
<rect width="3.07221" height="2.30227" rx="0.430476" transform="matrix(-1 -1.74846e-07 -1.74846e-07 1 9.13477 95.9071)" fill="#61C3F2"/>
<rect width="2.15055" height="0.460455" rx="0.230228" transform="matrix(-1 -1.74846e-07 -1.74846e-07 1 8.67432 98.3629)" fill="#61C3F2"/>
<rect width="3.07221" height="2.30227" rx="0.430476" transform="matrix(-1 -1.74846e-07 -1.74846e-07 1 14.79 95.9071)" fill="#A6A6A6" fill-opacity="0.5"/>
<rect width="2.15055" height="0.460455" rx="0.230228" transform="matrix(-1 -1.74846e-07 -1.74846e-07 1 14.3291 98.3629)" fill="#A6A6A6" fill-opacity="0.5"/>
<rect width="3.07221" height="2.30227" rx="0.430476" transform="matrix(-1 -1.74846e-07 -1.74846e-07 1 20.4448 95.9071)" fill="#A6A6A6" fill-opacity="0.5"/>
<rect width="2.15055" height="0.460455" rx="0.230228" transform="matrix(-1 -1.74846e-07 -1.74846e-07 1 19.9844 98.3629)" fill="#A6A6A6" fill-opacity="0.5"/>
<rect width="3.07221" height="2.30227" rx="0.430476" transform="matrix(-1 -1.74846e-07 -1.74846e-07 1 26.1001 95.9071)" fill="#A6A6A6" fill-opacity="0.5"/>
<rect width="2.15055" height="0.460455" rx="0.230228" transform="matrix(-1 -1.74846e-07 -1.74846e-07 1 25.6392 98.3629)" fill="#A6A6A6" fill-opacity="0.5"/>
<rect width="3.07221" height="2.30227" rx="0.430476" transform="matrix(-1 -1.74846e-07 -1.74846e-07 1 37.4102 95.9071)" fill="#61C3F2"/>
<rect width="2.15055" height="0.460455" rx="0.230228" transform="matrix(-1 -1.74846e-07 -1.74846e-07 1 36.9492 98.3629)" fill="#61C3F2"/>
<rect width="3.07221" height="2.30227" rx="0.430476" transform="matrix(-1 -1.74846e-07 -1.74846e-07 1 43.0654 95.9071)" fill="#61C3F2"/>
<rect width="2.15055" height="0.460455" rx="0.230228" transform="matrix(-1 -1.74846e-07 -1.74846e-07 1 42.6045 98.3629)" fill="#61C3F2"/>
<rect width="3.07221" height="2.30227" rx="0.430476" transform="matrix(-1 -1.74846e-07 -1.74846e-07 1 48.7202 95.9071)" fill="#A6A6A6" fill-opacity="0.5"/>
<rect width="2.15055" height="0.460455" rx="0.230228" transform="matrix(-1 -1.74846e-07 -1.74846e-07 1 48.2593 98.3629)" fill="#A6A6A6" fill-opacity="0.5"/>
<rect width="3.07221" height="2.30227" rx="0.430476" transform="matrix(-1 -1.74846e-07 -1.74846e-07 1 54.3755 95.9071)" fill="#A6A6A6" fill-opacity="0.5"/>
<rect width="2.15055" height="0.460455" rx="0.230228" transform="matrix(-1 -1.74846e-07 -1.74846e-07 1 53.9146 98.3629)" fill="#A6A6A6" fill-opacity="0.5"/>
<rect width="3.07221" height="2.30227" rx="0.430476" transform="matrix(-1 -1.74846e-07 -1.74846e-07 1 60.0303 95.9071)" fill="#61C3F2"/>
<rect width="2.15055" height="0.460455" rx="0.230228" transform="matrix(-1 -1.74846e-07 -1.74846e-07 1 59.5698 98.3629)" fill="#61C3F2"/>
<rect width="3.07221" height="2.30227" rx="0.430476" transform="matrix(-1 -1.74846e-07 -1.74846e-07 1 65.6855 95.9071)" fill="#61C3F2"/>
<rect width="2.15055" height="0.460455" rx="0.230228" transform="matrix(-1 -1.74846e-07 -1.74846e-07 1 65.2246 98.3629)" fill="#61C3F2"/>
<rect width="3.07221" height="2.30227" rx="0.430476" transform="matrix(-1 -1.74846e-07 -1.74846e-07 1 71.3408 95.9071)" fill="#A6A6A6" fill-opacity="0.5"/>
<rect width="2.15055" height="0.460455" rx="0.230228" transform="matrix(-1 -1.74846e-07 -1.74846e-07 1 70.8799 98.3629)" fill="#A6A6A6" fill-opacity="0.5"/>
<rect width="3.07221" height="2.30227" rx="0.430476" transform="matrix(-1 -1.74846e-07 -1.74846e-07 1 76.9956 95.9071)" fill="#A6A6A6" fill-opacity="0.5"/>
<rect width="2.15055" height="0.460455" rx="0.230228" transform="matrix(-1 -1.74846e-07 -1.74846e-07 1 76.5347 98.3629)" fill="#A6A6A6" fill-opacity="0.5"/>
<rect width="3.07221" height="2.30227" rx="0.430476" transform="matrix(-1 -1.74846e-07 -1.74846e-07 1 82.6509 95.9071)" fill="#61C3F2"/>
<rect width="2.15055" height="0.460455" rx="0.230228" transform="matrix(-1 -1.74846e-07 -1.74846e-07 1 82.1899 98.3629)" fill="#61C3F2"/>
<rect width="3.07221" height="2.30227" rx="0.430476" transform="matrix(-1 -1.74846e-07 -1.74846e-07 1 88.3057 95.9071)" fill="#61C3F2"/>
<rect width="2.15055" height="0.460455" rx="0.230228" transform="matrix(-1 -1.74846e-07 -1.74846e-07 1 87.8447 98.3629)" fill="#61C3F2"/>
<rect width="3.07221" height="2.30227" rx="0.430476" transform="matrix(-1 -1.74846e-07 -1.74846e-07 1 93.9609 95.9071)" fill="#A6A6A6" fill-opacity="0.5"/>
<rect width="2.15055" height="0.460455" rx="0.230228" transform="matrix(-1 -1.74846e-07 -1.74846e-07 1 93.5 98.3629)" fill="#A6A6A6" fill-opacity="0.5"/>
<rect width="3.07221" height="2.30227" rx="0.430476" transform="matrix(-1 -1.74846e-07 -1.74846e-07 1 99.6162 95.9071)" fill="#A6A6A6" fill-opacity="0.5"/>
<rect width="2.15055" height="0.460455" rx="0.230228" transform="matrix(-1 -1.74846e-07 -1.74846e-07 1 99.1553 98.3629)" fill="#A6A6A6" fill-opacity="0.5"/>
<rect width="3.07221" height="2.30227" rx="0.430476" transform="matrix(-1 -1.74846e-07 -1.74846e-07 1 105.271 95.9071)" fill="#61C3F2"/>
<rect width="2.15055" height="0.460455" rx="0.230228" transform="matrix(-1 -1.74846e-07 -1.74846e-07 1 104.81 98.3629)" fill="#61C3F2"/>
<rect width="3.07221" height="2.30227" rx="0.430476" transform="matrix(-1 -1.74846e-07 -1.74846e-07 1 110.926 95.9071)" fill="#61C3F2"/>
<rect width="2.15055" height="0.460455" rx="0.230228" transform="matrix(-1 -1.74846e-07 -1.74846e-07 1 110.465 98.3629)" fill="#61C3F2"/>
<rect width="3.07221" height="2.30227" rx="0.430476" transform="matrix(-1 -1.74846e-07 -1.74846e-07 1 122.236 95.9071)" fill="#A6A6A6" fill-opacity="0.5"/>
<rect width="2.15055" height="0.460455" rx="0.230228" transform="matrix(-1 -1.74846e-07 -1.74846e-07 1 121.775 98.3629)" fill="#A6A6A6" fill-opacity="0.5"/>
<rect width="3.07221" height="2.30227" rx="0.430476" transform="matrix(-1 -1.74846e-07 -1.74846e-07 1 127.891 95.9071)" fill="#A6A6A6" fill-opacity="0.5"/>
<rect width="2.15055" height="0.460455" rx="0.230228" transform="matrix(-1 -1.74846e-07 -1.74846e-07 1 127.43 98.3629)" fill="#A6A6A6" fill-opacity="0.5"/>
<rect width="3.07221" height="2.30227" rx="0.430476" transform="matrix(-1 -1.74846e-07 -1.74846e-07 1 133.546 95.9071)" fill="#A6A6A6" fill-opacity="0.5"/>
<rect width="2.15055" height="0.460455" rx="0.230228" transform="matrix(-1 -1.74846e-07 -1.74846e-07 1 133.085 98.3629)" fill="#A6A6A6" fill-opacity="0.5"/>
<rect width="3.07221" height="2.30227" rx="0.430476" transform="matrix(-1 -1.74846e-07 -1.74846e-07 1 139.201 95.9071)" fill="#61C3F2"/>
<rect width="2.15055" height="0.460455" rx="0.230228" transform="matrix(-1 -1.74846e-07 -1.74846e-07 1 138.74 98.3629)" fill="#61C3F2"/>
<rect width="3.07221" height="2.30227" rx="0.430476" transform="matrix(-1 -1.74846e-07 -1.74846e-07 1 144.856 95.9071)" fill="#61C3F2"/>
<rect width="2.15055" height="0.460455" rx="0.230228" transform="matrix(-1 -1.74846e-07 -1.74846e-07 1 144.396 98.3629)" fill="#61C3F2"/>
<rect width="3.07221" height="2.30227" rx="0.430476" transform="matrix(-1 -1.74846e-07 -1.74846e-07 1 9.13477 102.698)" fill="#A6A6A6" fill-opacity="0.5"/>
<rect width="2.15055" height="0.460455" rx="0.230228" transform="matrix(-1 -1.74846e-07 -1.74846e-07 1 8.67432 105.153)" fill="#A6A6A6" fill-opacity="0.5"/>
<rect width="3.07221" height="2.30227" rx="0.430476" transform="matrix(-1 -1.74846e-07 -1.74846e-07 1 14.79 102.698)" fill="#4FD2CF"/>
<rect width="2.15055" height="0.460455" rx="0.230228" transform="matrix(-1 -1.74846e-07 -1.74846e-07 1 14.3291 105.153)" fill="#4FD2CF"/>
<rect width="3.07221" height="2.30227" rx="0.430476" transform="matrix(-1 -1.74846e-07 -1.74846e-07 1 20.4448 102.698)" fill="#4FD2CF"/>
<rect width="2.15055" height="0.460455" rx="0.230228" transform="matrix(-1 -1.74846e-07 -1.74846e-07 1 19.9844 105.153)" fill="#4FD2CF"/>
<rect width="3.07221" height="2.30227" rx="0.430476" transform="matrix(-1 -1.74846e-07 -1.74846e-07 1 43.0654 102.698)" fill="#61C3F2"/>
<rect width="2.15055" height="0.460455" rx="0.230228" transform="matrix(-1 -1.74846e-07 -1.74846e-07 1 42.6045 105.153)" fill="#61C3F2"/>
<rect width="3.07221" height="2.30227" rx="0.430476" transform="matrix(-1 -1.74846e-07 -1.74846e-07 1 48.7202 102.698)" fill="#A6A6A6" fill-opacity="0.5"/>
<rect width="2.15055" height="0.460455" rx="0.230228" transform="matrix(-1 -1.74846e-07 -1.74846e-07 1 48.2593 105.153)" fill="#A6A6A6" fill-opacity="0.5"/>
<rect width="3.07221" height="2.30227" rx="0.430476" transform="matrix(-1 -1.74846e-07 -1.74846e-07 1 54.3755 102.698)" fill="#A6A6A6" fill-opacity="0.5"/>
<rect width="2.15055" height="0.460455" rx="0.230228" transform="matrix(-1 -1.74846e-07 -1.74846e-07 1 53.9146 105.153)" fill="#A6A6A6" fill-opacity="0.5"/>
<rect width="3.07221" height="2.30227" rx="0.430476" transform="matrix(-1 -1.74846e-07 -1.74846e-07 1 60.0303 102.698)" fill="#61C3F2"/>
<rect width="2.15055" height="0.460455" rx="0.230228" transform="matrix(-1 -1.74846e-07 -1.74846e-07 1 59.5698 105.153)" fill="#61C3F2"/>
<rect width="3.07221" height="2.30227" rx="0.430476" transform="matrix(-1 -1.74846e-07 -1.74846e-07 1 88.3057 102.698)" fill="#61C3F2"/>
<rect width="2.15055" height="0.460455" rx="0.230228" transform="matrix(-1 -1.74846e-07 -1.74846e-07 1 87.8447 105.153)" fill="#61C3F2"/>
<rect width="3.07221" height="2.30227" rx="0.430476" transform="matrix(-1 -1.74846e-07 -1.74846e-07 1 93.9609 102.698)" fill="#A6A6A6" fill-opacity="0.5"/>
<rect width="2.15055" height="0.460455" rx="0.230228" transform="matrix(-1 -1.74846e-07 -1.74846e-07 1 93.5 105.153)" fill="#A6A6A6" fill-opacity="0.5"/>
<rect width="3.07221" height="2.30227" rx="0.430476" transform="matrix(-1 -1.74846e-07 -1.74846e-07 1 99.6162 102.698)" fill="#A6A6A6" fill-opacity="0.5"/>
<rect width="2.15055" height="0.460455" rx="0.230228" transform="matrix(-1 -1.74846e-07 -1.74846e-07 1 99.1553 105.153)" fill="#A6A6A6" fill-opacity="0.5"/>
<rect width="3.07221" height="2.30227" rx="0.430476" transform="matrix(-1 -1.74846e-07 -1.74846e-07 1 105.271 102.698)" fill="#61C3F2"/>
<rect width="2.15055" height="0.460455" rx="0.230228" transform="matrix(-1 -1.74846e-07 -1.74846e-07 1 104.81 105.153)" fill="#61C3F2"/>
<rect width="3.07221" height="2.30227" rx="0.430476" transform="matrix(-1 -1.74846e-07 -1.74846e-07 1 127.891 102.698)" fill="#4FD2CF"/>
<rect width="2.15055" height="0.460455" rx="0.230228" transform="matrix(-1 -1.74846e-07 -1.74846e-07 1 127.43 105.153)" fill="#4FD2CF"/>
<rect width="3.07221" height="2.30227" rx="0.430476" transform="matrix(-1 -1.74846e-07 -1.74846e-07 1 133.546 102.698)" fill="#4FD2CF"/>
<rect width="2.15055" height="0.460455" rx="0.230228" transform="matrix(-1 -1.74846e-07 -1.74846e-07 1 133.085 105.153)" fill="#4FD2CF"/>
<rect width="3.07221" height="2.30227" rx="0.430476" transform="matrix(-1 -1.74846e-07 -1.74846e-07 1 139.201 102.698)" fill="#A6A6A6" fill-opacity="0.5"/>
<rect width="2.15055" height="0.460455" rx="0.230228" transform="matrix(-1 -1.74846e-07 -1.74846e-07 1 138.74 105.153)" fill="#A6A6A6" fill-opacity="0.5"/>
<mask id="mask0_34_3801" style="mask-type:alpha" maskUnits="userSpaceOnUse" x="0" y="0" width="145" height="17">
<rect x="0.529297" y="7.62939e-05" width="144.255" height="16.2075" fill="#C4C4C4"/>
</mask>
<g mask="url(#mask0_34_3801)">
<path d="M186.939 42.0382C186.939 47.6429 183.759 52.9969 177.975 57.8805C172.191 62.7637 163.816 67.1662 153.457 70.8655C132.74 78.2639 104.113 82.8419 72.4879 82.8419C40.8622 82.8419 12.2352 78.2639 -8.4815 70.8655C-18.8403 67.1662 -27.2157 62.7637 -32.9992 57.8805C-38.7833 52.9969 -41.9637 47.6429 -41.9637 42.0382C-41.9637 36.4335 -38.7833 31.0796 -32.9992 26.1959C-27.2157 21.3127 -18.8403 16.9103 -8.4815 13.2109C12.2352 5.81258 40.8622 1.23456 72.4879 1.23456C104.113 1.23456 132.74 5.81258 153.457 13.2109C163.816 16.9103 172.191 21.3127 177.975 26.1959C183.759 31.0796 186.939 36.4335 186.939 42.0382Z" fill="url(#paint0_linear_34_3801)" fill-opacity="0.3" stroke="#61C3F2" stroke-width="0.215238"/>
</g>
<defs>
<linearGradient id="paint0_linear_34_3801" x1="72.4879" y1="1.12694" x2="72.4879" y2="12.5828" gradientUnits="userSpaceOnUse">
<stop stop-color="#61C3F2" stop-opacity="0.26"/>
<stop offset="1" stop-color="#61C3F2" stop-opacity="0"/>
</linearGradient>
</defs>
</svg>
